<svg width="18" height="18" viewBox="0 0 18 18" fill="none" xmlns="http://www.w3.org/2000/svg">
<g clip-path="url(#clip0)">
<path d="M0.937502 12.75H3.5625C3.58715 12.7501 3.61158 12.7453 3.63437 12.7359C3.65717 12.7265 3.67787 12.7127 3.69531 12.6953C3.71274 12.6779 3.72654 12.6572 3.73593 12.6344C3.74532 12.6116 3.7501 12.5872 3.75 12.5625V11.0625C3.75 10.8636 3.67098 10.6728 3.53033 10.5322C3.38968 10.3915 3.19891 10.3125 3 10.3125H1.5C1.30109 10.3125 1.11032 10.3915 0.969671 10.5322C0.829019 10.6728 0.750002 10.8636 0.750002 11.0625V12.5625C0.749902 12.5872 0.754684 12.6116 0.764072 12.6344C0.77346 12.6572 0.787267 12.6779 0.804698 12.6953C0.822129 12.7127 0.842838 12.7265 0.865631 12.7359C0.888425 12.7453 0.912851 12.7501 0.937502 12.75Z" fill="white"/>
<path d="M6 6.5625C5.80109 6.5625 5.61032 6.64152 5.46967 6.78217C5.32902 6.92282 5.25 7.11359 5.25 7.3125V12.5625C5.2499 12.5872 5.25468 12.6116 5.26407 12.6344C5.27346 12.6572 5.28727 12.6779 5.3047 12.6953C5.32213 12.7127 5.34284 12.7265 5.36563 12.7359C5.38842 12.7453 5.41285 12.7501 5.4375 12.75H8.0625C8.08715 12.7501 8.11158 12.7453 8.13437 12.7359C8.15717 12.7265 8.17787 12.7127 8.19531 12.6953C8.21274 12.6779 8.22654 12.6572 8.23593 12.6344C8.24532 12.6116 8.2501 12.5872 8.25 12.5625V7.3125C8.25 7.11359 8.17098 6.92282 8.03033 6.78217C7.88968 6.64152 7.69891 6.5625 7.5 6.5625H6Z" fill="white"/>
<path d="M10.5 8.0625C10.3011 8.0625 10.1103 8.14152 9.96967 8.28217C9.82902 8.42282 9.75 8.61359 9.75 8.8125V12.5625C9.7499 12.5872 9.75468 12.6116 9.76407 12.6344C9.77346 12.6572 9.78727 12.6779 9.8047 12.6953C9.82213 12.7127 9.84284 12.7265 9.86563 12.7359C9.88842 12.7453 9.91285 12.7501 9.9375 12.75H12.5625C12.5872 12.7501 12.6116 12.7453 12.6344 12.7359C12.6572 12.7265 12.6779 12.7127 12.6953 12.6953C12.7127 12.6779 12.7265 12.6572 12.7359 12.6344C12.7453 12.6116 12.7501 12.5872 12.75 12.5625V8.8125C12.75 8.61359 12.671 8.42282 12.5303 8.28217C12.3897 8.14152 12.1989 8.0625 12 8.0625H10.5Z" fill="white"/>
<path d="M14.4375 12.75H17.0625C17.0872 12.7501 17.1116 12.7453 17.1344 12.7359C17.1572 12.7265 17.1779 12.7127 17.1953 12.6953C17.2127 12.6779 17.2265 12.6572 17.2359 12.6344C17.2453 12.6116 17.2501 12.5872 17.25 12.5625V3.5625C17.25 3.36359 17.171 3.17282 17.0303 3.03217C16.8897 2.89152 16.6989 2.8125 16.5 2.8125H15C14.8011 2.8125 14.6103 2.89152 14.4697 3.03217C14.329 3.17282 14.25 3.36359 14.25 3.5625V12.5625C14.2499 12.5872 14.2547 12.6116 14.2641 12.6344C14.2735 12.6572 14.2873 12.6779 14.3047 12.6953C14.3221 12.7127 14.3428 12.7265 14.3656 12.7359C14.3884 12.7453 14.4129 12.7501 14.4375 12.75Z" fill="white"/>
<path d="M0.75 15.1875H17.25C17.4489 15.1875 17.6397 15.1085 17.7803 14.9678C17.921 14.8272 18 14.6364 18 14.4375C18 14.2386 17.921 14.0478 17.7803 13.9072C17.6397 13.7665 17.4489 13.6875 17.25 13.6875H0.75C0.551088 13.6875 0.360322 13.7665 0.21967 13.9072C0.0790176 14.0478 0 14.2386 0 14.4375C0 14.6364 0.0790176 14.8272 0.21967 14.9678C0.360322 15.1085 0.551088 15.1875 0.75 15.1875Z" fill="white"/>
</g>
<defs>
<clipPath id="clip0">
<rect width="18" height="18" fill="white"/>
</clipPath>
</defs>
</svg>
