<svg version="1.1" viewBox="0.0 0.0 360.254593175853 286.29396325459317" fill="none" stroke="none" stroke-linecap="square" stroke-miterlimit="10" xmlns:xlink="http://www.w3.org/1999/xlink" xmlns="http://www.w3.org/2000/svg"><clipPath id="p.0"><path d="m0 0l360.2546 0l0 286.29398l-360.2546 0l0 -286.29398z" clip-rule="nonzero"/></clipPath><g clip-path="url(#p.0)"><path fill="#000000" fill-opacity="0.0" d="m0 0l360.2546 0l0 286.29398l-360.2546 0z" fill-rule="evenodd"/><path fill="#000000" fill-opacity="0.0" d="m274.9134 210.61154l77.82675 0" fill-rule="evenodd"/><path stroke="#0000ff" stroke-width="8.0" stroke-linejoin="round" stroke-linecap="butt" d="m274.9134 210.61154l29.826752 0" fill-rule="evenodd"/><path fill="#0000ff" stroke="#0000ff" stroke-width="8.0" stroke-linecap="butt" d="m304.74017 223.82541l36.30478 -13.213867l-36.30478 -13.213852z" fill-rule="evenodd"/><path fill="#000000" fill-opacity="0.0" d="m273.94226 107.85827l77.82678 0" fill-rule="evenodd"/><path stroke="#ff0000" stroke-width="8.0" stroke-linejoin="round" stroke-linecap="butt" d="m273.94226 107.85827l29.826782 0" fill-rule="evenodd"/><path fill="#ff0000" stroke="#ff0000" stroke-width="8.0" stroke-linecap="butt" d="m303.76904 121.07213l36.30478 -13.21386l-36.30478 -13.21386z" fill-rule="evenodd"/><path fill="#a4c2f4" d="m58.65354 54.588646l0 0c0 -19.905842 16.136879 -36.042717 36.042717 -36.042717l144.16653 0l0 0c9.559128 0 18.726746 3.797348 25.486053 10.556667c6.759308 6.759321 10.556671 15.926928 10.556671 25.486048l0 154.18228c0 19.905838 -16.136871 36.04271 -36.042725 36.04271l-144.16653 0l0 0c-19.905838 0 -36.042717 -16.136871 -36.042717 -36.04271z" fill-rule="evenodd"/><path fill="#000000" d="m161.25609 131.75978l-7.546875 0l-3.0 -7.8124924l-13.734375 0l-2.84375 7.8124924l-7.359375 0l13.390625 -34.359367l7.328125 0l13.765625 34.359367zm-12.78125 -13.593742l-4.734375 -12.75l-4.640625 12.75l9.375 0zm12.8828125 14.187492l8.515625 -35.546867l4.953125 0l-8.609375 35.546867l-4.859375 0zm25.679688 -0.59375l-12.296875 -34.359367l7.53125 0l8.703125 25.421875l8.40625 -25.421875l7.359375 0l-12.296875 34.359367l-7.40625 0z" fill-rule="nonzero"/><path fill="#000000" d="m96.47972 170.55978l0 -20.046875l14.875 0l0 3.390625l-10.828125 0l0 4.453125l10.0625 0l0 3.375l-10.0625 0l0 5.453125l11.203125 0l0 3.375l-15.25 0zm28.144531 5.53125l0 -7.3125q-0.75 0.96875 -1.875 1.546875q-1.125 0.5625 -2.421875 0.5625q-2.46875 0 -4.078125 -1.859375q-1.875 -2.171875 -1.875 -5.890625q0 -3.5 1.765625 -5.453125q1.765625 -1.96875 4.390625 -1.96875q1.453125 0 2.515625 0.609375q1.0625 0.609375 1.875 1.859375l0 -2.140625l3.546875 0l0 20.046875l-3.84375 0zm0.125 -12.96875q0 -2.234375 -0.921875 -3.3125q-0.90625 -1.09375 -2.265625 -1.09375q-1.390625 0 -2.328125 1.109375q-0.9375 1.109375 -0.9375 3.515625q0 2.390625 0.890625 3.453125q0.90625 1.0625 2.234375 1.0625q1.328125 0 2.328125 -1.1875q1.0 -1.203125 1.0 -3.546875zm17.041016 7.4375l0 -2.171875q-0.78125 1.15625 -2.078125 1.828125q-1.296875 0.671875 -2.734375 0.671875q-1.453125 0 -2.625 -0.640625q-1.15625 -0.640625 -1.6875 -1.796875q-0.515625 -1.171875 -0.515625 -3.21875l0 -9.1875l3.84375 0l0 6.671875q0 3.0625 0.203125 3.75q0.21875 0.6875 0.78125 1.09375q0.5625 0.40625 1.421875 0.40625q0.984375 0 1.765625 -0.53125q0.78125 -0.546875 1.0625 -1.34375q0.296875 -0.8125 0.296875 -3.921875l0 -6.125l3.84375 0l0 14.515625l-3.578125 0zm7.5566406 -16.484375l0 -3.5625l3.84375 0l0 3.5625l-3.84375 0zm0 16.484375l0 -14.515625l3.84375 0l0 14.515625l-3.84375 0zm7.669922 -14.515625l3.578125 0l0 2.125q0.703125 -1.09375 1.890625 -1.765625q1.1875 -0.6875 2.640625 -0.6875q2.515625 0 4.28125 1.984375q1.765625 1.96875 1.765625 5.515625q0 3.640625 -1.78125 5.65625q-1.765625 2.015625 -4.296875 2.015625q-1.203125 0 -2.1875 -0.46875q-0.96875 -0.484375 -2.046875 -1.65625l0 7.328125l-3.84375 0l0 -20.046875zm3.796875 7.015625q0 2.4375 0.96875 3.609375q0.96875 1.171875 2.359375 1.171875q1.34375 0 2.234375 -1.078125q0.890625 -1.078125 0.890625 -3.515625q0 -2.28125 -0.921875 -3.390625q-0.90625 -1.109375 -2.265625 -1.109375q-1.40625 0 -2.34375 1.09375q-0.921875 1.078125 -0.921875 3.21875zm13.119141 -7.015625l3.546875 0l0 1.984375q1.90625 -2.3125 4.53125 -2.3125q1.390625 0 2.40625 0.578125q1.03125 0.5625 1.6875 1.734375q0.953125 -1.171875 2.0625 -1.734375q1.109375 -0.578125 2.375 -0.578125q1.59375 0 2.703125 0.65625q1.109375 0.640625 1.65625 1.890625q0.390625 0.9375 0.390625 3.015625l0 9.28125l-3.84375 0l0 -8.296875q0 -2.15625 -0.390625 -2.796875q-0.53125 -0.8125 -1.640625 -0.8125q-0.8125 0 -1.53125 0.5q-0.703125 0.484375 -1.015625 1.4375q-0.3125 0.9375 -0.3125 3.0l0 6.96875l-3.84375 0l0 -7.953125q0 -2.125 -0.203125 -2.734375q-0.203125 -0.625 -0.640625 -0.921875q-0.421875 -0.296875 -1.171875 -0.296875q-0.875 0 -1.59375 0.484375q-0.703125 0.46875 -1.015625 1.375q-0.3125 0.90625 -0.3125 2.984375l0 7.0625l-3.84375 0l0 -14.515625zm33.59961 9.890625l3.828125 0.640625q-0.734375 2.109375 -2.328125 3.21875q-1.59375 1.09375 -3.984375 1.09375q-3.796875 0 -5.609375 -2.46875q-1.4375 -1.984375 -1.4375 -5.015625q0 -3.609375 1.875 -5.640625q1.890625 -2.046875 4.78125 -2.046875q3.234375 0 5.109375 2.140625q1.875 2.140625 1.796875 6.546875l-9.625 0q0.046875 1.71875 0.921875 2.671875q0.890625 0.9375 2.21875 0.9375q0.90625 0 1.515625 -0.484375q0.625 -0.5 0.9375 -1.59375zm0.21875 -3.875q-0.046875 -1.671875 -0.875 -2.53125q-0.8125 -0.875 -1.984375 -0.875q-1.265625 0 -2.078125 0.90625q-0.828125 0.921875 -0.8125 2.5l5.75 0zm20.15039 8.5l-3.84375 0l0 -7.40625q0 -2.359375 -0.25 -3.046875q-0.234375 -0.6875 -0.796875 -1.0625q-0.546875 -0.390625 -1.328125 -0.390625q-1.0 0 -1.796875 0.546875q-0.796875 0.546875 -1.09375 1.453125q-0.28125 0.890625 -0.28125 3.328125l0 6.578125l-3.84375 0l0 -14.515625l3.5625 0l0 2.125q1.90625 -2.453125 4.796875 -2.453125q1.265625 0 2.3125 0.453125q1.0625 0.453125 1.59375 1.171875q0.546875 0.703125 0.75 1.609375q0.21875 0.90625 0.21875 2.578125l0 9.03125zm10.556641 -14.515625l0 3.0625l-2.625 0l0 5.84375q0 1.78125 0.0625 2.078125q0.078125 0.296875 0.34375 0.484375q0.28125 0.1875 0.65625 0.1875q0.53125 0 1.546875 -0.375l0.328125 2.984375q-1.34375 0.578125 -3.03125 0.578125q-1.046875 0 -1.890625 -0.34375q-0.828125 -0.359375 -1.21875 -0.90625q-0.375 -0.5625 -0.53125 -1.5q-0.125 -0.671875 -0.125 -2.703125l0 -6.328125l-1.765625 0l0 -3.0625l1.765625 0l0 -2.890625l3.859375 -2.234375l0 5.125l2.625 0z" fill-rule="nonzero"/><path fill="#000000" fill-opacity="0.0" d="m280.44357 106.70079l69.29132 0l0 105.03937l-69.29132 0z" fill-rule="evenodd"/><path fill="#0000ff" d="m307.86545 139.69704l27.46875 -8.5625l0 38.234375q0 4.265625 -1.09375 6.453125q-1.078125 2.171875 -3.6875 3.59375q-2.609375 1.40625 -5.890625 1.40625q-3.75 0 -6.0 -2.15625q-2.234375 -2.15625 -2.234375 -5.578125q0 -3.453125 2.65625 -5.953125q2.65625 -2.5 6.859375 -2.5q1.375 0 2.421875 0.25q1.0625 0.234375 3.4375 1.234375l0 -24.984375l-20.515625 6.390625l0 28.84375q0 4.171875 -1.109375 6.5q-1.109375 2.328125 -3.796875 3.703125q-2.6875 1.390625 -5.859375 1.390625q-3.765625 0 -5.953125 -2.125q-2.1875 -2.125 -2.1875 -5.546875q0 -3.609375 2.609375 -6.078125q2.625 -2.46875 6.875 -2.46875q2.6875 0 6.0 1.578125l0 -33.625z" fill-rule="nonzero"/><path fill="#ff0000" d="m284.99475 28.813648l69.29135 0l0 1.4803143l-69.29135 0z" fill-rule="evenodd"/><path fill="#ff0000" d="m284.99475 33.171513l69.29135 0l0 1.4803123l-69.29135 0z" fill-rule="evenodd"/><path fill="#ff0000" d="m287.551 29.72611l3.0551147 0l0 3.5905514l-3.0551147 0z" fill-rule="evenodd"/><path fill="#ff0000" d="m294.36758 29.72611l3.0551453 0l0 3.5905514l-3.0551453 0z" fill-rule="evenodd"/><path fill="#ff0000" d="m301.1842 29.72611l3.0551147 0l0 3.5905514l-3.0551147 0z" fill-rule="evenodd"/><path fill="#ff0000" d="m308.00082 29.72611l3.0551147 0l0 3.5905514l-3.0551147 0z" fill-rule="evenodd"/><path fill="#ff0000" d="m314.81744 29.72611l3.0551147 0l0 3.5905514l-3.0551147 0z" fill-rule="evenodd"/><path fill="#ff0000" d="m321.63406 29.72611l3.0551147 0l0 3.5905514l-3.0551147 0z" fill-rule="evenodd"/><path fill="#ff0000" d="m328.45068 29.72611l3.0551147 0l0 3.5905514l-3.0551147 0z" fill-rule="evenodd"/><path fill="#ff0000" d="m335.2673 29.72611l3.0551147 0l0 3.5905514l-3.0551147 0z" fill-rule="evenodd"/><path fill="#ff0000" d="m342.0839 29.72611l3.0551453 0l0 3.5905514l-3.0551453 0z" fill-rule="evenodd"/><path fill="#ff0000" d="m348.9005 29.72611l3.0551147 0l0 3.5905514l-3.0551147 0z" fill-rule="evenodd"/><path fill="#ff0000" d="m293.53314 34.1343l4.7243958 0l0 32.62992l-4.7243958 0z" fill-rule="evenodd"/><path fill="#ff0000" d="m340.75882 34.030216l4.0629883 0l0 32.629917l-4.0629883 0z" fill-rule="evenodd"/><path fill="#ff0000" d="m284.99475 66.68674l69.29135 0l0 1.4803162l-69.29135 0z" fill-rule="evenodd"/><path fill="#ff0000" d="m284.99475 71.0446l69.29135 0l0 1.4803162l-69.29135 0z" fill-rule="evenodd"/><path fill="#ff0000" d="m287.551 67.5992l3.0551147 0l0 3.5905533l-3.0551147 0z" fill-rule="evenodd"/><path fill="#ff0000" d="m294.36758 67.5992l3.0551453 0l0 3.5905533l-3.0551453 0z" fill-rule="evenodd"/><path fill="#ff0000" d="m301.1842 67.5992l3.0551147 0l0 3.5905533l-3.0551147 0z" fill-rule="evenodd"/><path fill="#ff0000" d="m308.00082 67.5992l3.0551147 0l0 3.5905533l-3.0551147 0z" fill-rule="evenodd"/><path fill="#ff0000" d="m314.81744 67.5992l3.0551147 0l0 3.5905533l-3.0551147 0z" fill-rule="evenodd"/><path fill="#ff0000" d="m321.63406 67.5992l3.0551147 0l0 3.5905533l-3.0551147 0z" fill-rule="evenodd"/><path fill="#ff0000" d="m328.45068 67.5992l3.0551147 0l0 3.5905533l-3.0551147 0z" fill-rule="evenodd"/><path fill="#ff0000" d="m335.2673 67.5992l3.0551147 0l0 3.5905533l-3.0551147 0z" fill-rule="evenodd"/><path fill="#ff0000" d="m342.0839 67.5992l3.0551453 0l0 3.5905533l-3.0551453 0z" fill-rule="evenodd"/><path fill="#ff0000" d="m348.9005 67.5992l3.0551147 0l0 3.5905533l-3.0551147 0z" fill-rule="evenodd"/></g></svg>