<svg width="18" height="18" viewBox="0 0 18 18" fill="none" xmlns="http://www.w3.org/2000/svg">
<g clip-path="url(#clip0)">
<path d="M14.589 5.625H3.41027C3.35806 5.62479 3.30637 5.63549 3.25852 5.65641C3.21068 5.67733 3.16773 5.70801 3.13242 5.74649C3.09712 5.78497 3.07025 5.8304 3.05352 5.87986C3.03679 5.92933 3.03057 5.98175 3.03527 6.03375L4.00052 16.6358C4.0344 17.0086 4.20646 17.3552 4.4829 17.6077C4.75934 17.8601 5.12017 18 5.49452 18H12.5048C12.8791 18 13.24 17.8601 13.5164 17.6077C13.7928 17.3552 13.9649 17.0086 13.9988 16.6358L14.9625 6.03375C14.9672 5.9819 14.961 5.92964 14.9443 5.88032C14.9277 5.83099 14.9009 5.78568 14.8658 5.74725C14.8307 5.70877 14.7879 5.67803 14.7403 5.65698C14.6926 5.63593 14.6411 5.62504 14.589 5.625ZM7.68902 15.375C7.68902 15.5242 7.62976 15.6673 7.52427 15.7728C7.41878 15.8782 7.27571 15.9375 7.12652 15.9375C6.97734 15.9375 6.83427 15.8782 6.72878 15.7728C6.62329 15.6673 6.56402 15.5242 6.56402 15.375V8.625C6.56402 8.47582 6.62329 8.33275 6.72878 8.22726C6.83427 8.12177 6.97734 8.0625 7.12652 8.0625C7.27571 8.0625 7.41878 8.12177 7.52427 8.22726C7.62976 8.33275 7.68902 8.47582 7.68902 8.625V15.375ZM11.439 15.375C11.439 15.5242 11.3798 15.6673 11.2743 15.7728C11.1688 15.8782 11.0257 15.9375 10.8765 15.9375C10.7273 15.9375 10.5843 15.8782 10.4788 15.7728C10.3733 15.6673 10.314 15.5242 10.314 15.375V8.625C10.314 8.47582 10.3733 8.33275 10.4788 8.22726C10.5843 8.12177 10.7273 8.0625 10.8765 8.0625C11.0257 8.0625 11.1688 8.12177 11.2743 8.22726C11.3798 8.33275 11.439 8.47582 11.439 8.625V15.375Z" fill="#FF4747"/>
<path d="M16.5 3H12.9375C12.8878 3 12.8401 2.98025 12.8049 2.94508C12.7698 2.90992 12.75 2.86223 12.75 2.8125V1.875C12.75 1.37772 12.5525 0.900805 12.2008 0.549175C11.8492 0.197544 11.3723 0 10.875 0L7.125 0C6.62772 0 6.15081 0.197544 5.79917 0.549175C5.44754 0.900805 5.25 1.37772 5.25 1.875V2.8125C5.25 2.86223 5.23025 2.90992 5.19508 2.94508C5.15992 2.98025 5.11223 3 5.0625 3H1.5C1.30109 3 1.11032 3.07902 0.96967 3.21967C0.829018 3.36032 0.75 3.55109 0.75 3.75C0.75 3.94891 0.829018 4.13968 0.96967 4.28033C1.11032 4.42098 1.30109 4.5 1.5 4.5H16.5C16.6989 4.5 16.8897 4.42098 17.0303 4.28033C17.171 4.13968 17.25 3.94891 17.25 3.75C17.25 3.55109 17.171 3.36032 17.0303 3.21967C16.8897 3.07902 16.6989 3 16.5 3ZM6.75 2.8125V1.875C6.75 1.77554 6.78951 1.68016 6.85983 1.60984C6.93016 1.53951 7.02554 1.5 7.125 1.5H10.875C10.9745 1.5 11.0698 1.53951 11.1402 1.60984C11.2105 1.68016 11.25 1.77554 11.25 1.875V2.8125C11.25 2.86223 11.2302 2.90992 11.1951 2.94508C11.1599 2.98025 11.1122 3 11.0625 3H6.9375C6.88777 3 6.84008 2.98025 6.80492 2.94508C6.76975 2.90992 6.75 2.86223 6.75 2.8125Z" fill="#FF4747"/>
</g>
<defs>
<clipPath id="clip0">
<rect width="18" height="18" fill="#FF4747"/>
</clipPath>
</defs>
</svg>
