<svg width="16" height="16" viewBox="0 0 16 16" fill="none" xmlns="http://www.w3.org/2000/svg">
<g clip-path="url(#clip0)">
<path d="M14.3334 2H12.5C12.4558 2 12.4134 1.98244 12.3822 1.95118C12.3509 1.91993 12.3334 1.87754 12.3334 1.83333V0.666667C12.3334 0.489856 12.2631 0.320286 12.1381 0.195262C12.0131 0.0702379 11.8435 0 11.6667 0C11.4899 0 11.3203 0.0702379 11.1953 0.195262C11.0703 0.320286 11 0.489856 11 0.666667V3.83333C11 3.96594 10.9474 4.09312 10.8536 4.18689C10.7598 4.28065 10.6326 4.33333 10.5 4.33333C10.3674 4.33333 10.2403 4.28065 10.1465 4.18689C10.0527 4.09312 10 3.96594 10 3.83333V2.33333C10 2.24493 9.96492 2.16014 9.90241 2.09763C9.8399 2.03512 9.75511 2 9.66671 2H5.50004C5.45595 2 5.41366 1.98253 5.38242 1.95142C5.35119 1.92031 5.33355 1.87809 5.33337 1.834V0.666667C5.33337 0.489856 5.26314 0.320286 5.13811 0.195262C5.01309 0.0702379 4.84352 0 4.66671 0C4.4899 0 4.32033 0.0702379 4.1953 0.195262C4.07028 0.320286 4.00004 0.489856 4.00004 0.666667V3.83333C4.00004 3.96594 3.94736 4.09312 3.85359 4.18689C3.75983 4.28065 3.63265 4.33333 3.50004 4.33333C3.36743 4.33333 3.24026 4.28065 3.14649 4.18689C3.05272 4.09312 3.00004 3.96594 3.00004 3.83333V2.33333C3.00004 2.24493 2.96492 2.16014 2.90241 2.09763C2.8399 2.03512 2.75511 2 2.66671 2H1.66671C1.31309 2 0.973947 2.14048 0.723898 2.39052C0.47385 2.64057 0.333374 2.97971 0.333374 3.33333V14.6667C0.333374 15.0203 0.47385 15.3594 0.723898 15.6095C0.973947 15.8595 1.31309 16 1.66671 16H14.3334C14.687 16 15.0261 15.8595 15.2762 15.6095C15.5262 15.3594 15.6667 15.0203 15.6667 14.6667V3.33333C15.6667 2.97971 15.5262 2.64057 15.2762 2.39052C15.0261 2.14048 14.687 2 14.3334 2ZM14 14.6667H2.00004C1.91164 14.6667 1.82685 14.6315 1.76434 14.569C1.70183 14.5065 1.66671 14.4217 1.66671 14.3333V6.33333C1.66671 6.24493 1.70183 6.16014 1.76434 6.09763C1.82685 6.03512 1.91164 6 2.00004 6H14C14.0884 6 14.1732 6.03512 14.2357 6.09763C14.2983 6.16014 14.3334 6.24493 14.3334 6.33333V14.3333C14.3334 14.4217 14.2983 14.5065 14.2357 14.569C14.1732 14.6315 14.0884 14.6667 14 14.6667Z" fill="#52586F"/>
</g>
<defs>
<clipPath id="clip0">
<rect width="16" height="16" fill="white"/>
</clipPath>
</defs>
</svg>
