<svg width="18" height="18" viewBox="0 0 18 18" fill="none" xmlns="http://www.w3.org/2000/svg">
<g clip-path="url(#clip0)">
<path d="M4.70776 9.91351L7.40776 8.11351C7.42208 8.10414 7.43383 8.09135 7.44195 8.07628C7.45007 8.06122 7.4543 8.04437 7.45426 8.02726C7.45436 8.01003 7.45016 7.99306 7.44204 7.97786C7.43392 7.96267 7.42214 7.94975 7.40776 7.94026L4.96801 6.31426C4.82647 6.22992 4.66477 6.18539 4.50001 6.18539C4.33525 6.18539 4.17355 6.22992 4.03201 6.31426L1.59301 7.94026C1.57863 7.94975 1.56685 7.96267 1.55873 7.97786C1.55061 7.99306 1.54641 8.01003 1.54651 8.02726C1.54647 8.04437 1.5507 8.06122 1.55882 8.07628C1.56694 8.09135 1.57869 8.10414 1.59301 8.11351L4.29301 9.91351C4.35448 9.95431 4.42661 9.97607 4.50039 9.97607C4.57416 9.97607 4.64629 9.95431 4.70776 9.91351Z" fill="white"/>
<path d="M1.1565 8.76226C1.14692 8.76725 1.1389 8.77479 1.13334 8.78406C1.12778 8.79333 1.12489 8.80395 1.125 8.81476V15.2738C1.13475 15.4455 1.18092 15.6133 1.26044 15.7659C1.33996 15.9185 1.45102 16.0524 1.58625 16.1588L4.03875 17.8695C4.17696 17.9562 4.33683 18.0022 4.5 18.0022C4.66318 18.0022 4.82304 17.9562 4.96125 17.8695L7.41375 16.1588C7.54898 16.0524 7.66004 15.9185 7.73957 15.7659C7.81909 15.6133 7.86526 15.4455 7.875 15.2738V8.81476C7.87489 8.80398 7.87188 8.79343 7.86629 8.78422C7.86069 8.775 7.85271 8.76747 7.8432 8.7624C7.83368 8.75734 7.82298 8.75493 7.81221 8.75543C7.80144 8.75594 7.79101 8.75933 7.782 8.76526L5.124 10.5375C4.93921 10.6607 4.72209 10.7264 4.5 10.7264C4.27792 10.7264 4.0608 10.6607 3.876 10.5375L1.218 8.76526C1.20904 8.75909 1.19854 8.75554 1.18768 8.75501C1.17682 8.75448 1.16602 8.75699 1.1565 8.76226Z" fill="white"/>
<path d="M10.1565 2.57476C10.1469 2.57974 10.1389 2.58729 10.1333 2.59656C10.1278 2.60582 10.1249 2.61645 10.125 2.62725V15.2738C10.1348 15.4455 10.1809 15.6133 10.2604 15.7659C10.34 15.9184 10.451 16.0524 10.5863 16.1588L13.0388 17.8695C13.177 17.9562 13.3368 18.0022 13.5 18.0022C13.6632 18.0022 13.823 17.9562 13.9613 17.8695L16.4138 16.1588C16.549 16.0524 16.66 15.9184 16.7396 15.7659C16.8191 15.6133 16.8653 15.4455 16.875 15.2738V2.625C16.8749 2.61423 16.8719 2.60367 16.8663 2.59446C16.8607 2.58525 16.8527 2.57771 16.8432 2.57265C16.8337 2.56758 16.823 2.56518 16.8122 2.56568C16.8014 2.56618 16.791 2.56958 16.782 2.5755L14.124 4.35001C13.9392 4.47319 13.7221 4.53892 13.5 4.53892C13.2779 4.53892 13.0608 4.47319 12.876 4.35001L10.218 2.57776C10.209 2.57159 10.1985 2.56804 10.1877 2.56751C10.1768 2.56698 10.166 2.56949 10.1565 2.57476Z" fill="white"/>
<path d="M13.7078 3.72601L16.4078 1.92601C16.4221 1.91664 16.4338 1.90385 16.442 1.88878C16.4501 1.87372 16.4543 1.85687 16.4543 1.83976C16.4544 1.82253 16.4502 1.80556 16.442 1.79036C16.4339 1.77517 16.4221 1.76225 16.4078 1.75276L13.968 0.12676C13.8265 0.0424189 13.6648 -0.00210571 13.5 -0.00210571C13.3352 -0.00210571 13.1735 0.0424189 13.032 0.12676L10.593 1.75276C10.5786 1.76225 10.5668 1.77517 10.5587 1.79036C10.5506 1.80556 10.5464 1.82253 10.5465 1.83976C10.5465 1.85687 10.5507 1.87372 10.5588 1.88878C10.5669 1.90385 10.5787 1.91664 10.593 1.92601L13.293 3.72601C13.3545 3.76681 13.4266 3.78857 13.5004 3.78857C13.5742 3.78857 13.6463 3.76681 13.7078 3.72601Z" fill="white"/>
</g>
<defs>
<clipPath id="clip0">
<rect width="18" height="18" fill="white"/>
</clipPath>
</defs>
</svg>
