<svg width="18" height="18" viewBox="0 0 18 18" fill="none" xmlns="http://www.w3.org/2000/svg">
<g clip-path="url(#clip0)">
<path d="M15.1125 3.03C15.0279 3.01274 14.9519 2.96682 14.8972 2.90001C14.8426 2.83319 14.8127 2.74957 14.8125 2.66325V1.5C14.8125 1.10218 14.6545 0.720644 14.3732 0.43934C14.0919 0.158035 13.7103 0 13.3125 0L3.9375 0C3.34076 0 2.76847 0.237053 2.34651 0.65901C1.92455 1.08097 1.6875 1.65326 1.6875 2.25V15.75C1.6875 16.3467 1.92455 16.919 2.34651 17.341C2.76847 17.7629 3.34076 18 3.9375 18H14.8125C15.2103 18 15.5919 17.842 15.8732 17.5607C16.1545 17.2794 16.3125 16.8978 16.3125 16.5V4.5C16.3126 4.1542 16.1932 3.819 15.9745 3.55113C15.7558 3.28325 15.4513 3.09916 15.1125 3.03ZM12.3 10.8322L9.26925 13.9943C9.23426 14.0307 9.19227 14.0596 9.14581 14.0794C9.09935 14.0992 9.04937 14.1094 8.99887 14.1094C8.94838 14.1094 8.8984 14.0992 8.85194 14.0794C8.80548 14.0596 8.76349 14.0307 8.7285 13.9943L5.69325 10.827C5.37235 10.5048 5.16093 10.0898 5.08892 9.64074C5.01691 9.19172 5.08796 8.73142 5.292 8.325C5.44641 8.0178 5.67144 7.75157 5.94865 7.54817C6.22585 7.34477 6.54733 7.20998 6.88671 7.15487C7.22609 7.09976 7.5737 7.12589 7.90103 7.23112C8.22835 7.33636 8.52607 7.51769 8.76975 7.76025L9 7.99125L9.231 7.76175C9.47418 7.51838 9.77172 7.3363 10.0991 7.23053C10.4265 7.12476 10.7743 7.09833 11.1139 7.15342C11.4535 7.2085 11.7752 7.34353 12.0523 7.54736C12.3295 7.75119 12.5542 8.01799 12.708 8.32575C12.9121 8.73339 12.9826 9.19501 12.9093 9.64498C12.8361 10.095 12.6229 10.5104 12.3 10.8322ZM13.3125 2.8125C13.3125 2.86223 13.2927 2.90992 13.2576 2.94508C13.2224 2.98025 13.1747 3 13.125 3H3.9375C3.73859 3 3.54782 2.92098 3.40717 2.78033C3.26652 2.63968 3.1875 2.44891 3.1875 2.25C3.1875 2.05109 3.26652 1.86032 3.40717 1.71967C3.54782 1.57902 3.73859 1.5 3.9375 1.5H13.125C13.1747 1.5 13.2224 1.51975 13.2576 1.55492C13.2927 1.59008 13.3125 1.63777 13.3125 1.6875V2.8125Z" fill="white"/>
</g>
<defs>
<clipPath id="clip0">
<rect width="18" height="18" fill="white"/>
</clipPath>
</defs>
</svg>
