<svg width="16" height="16" viewBox="0 0 16 16" fill="none" xmlns="http://www.w3.org/2000/svg">
<g clip-path="url(#clip0)">
<path d="M1.33333 16L14.6667 16C15.0203 16 15.3594 15.8595 15.6095 15.6095C15.8595 15.3594 16 15.0203 16 14.6667L16 1.33333C16 0.979711 15.8595 0.640573 15.6095 0.390524C15.3594 0.140475 15.0203 -8.56491e-08 14.6667 -1.16564e-07L1.33333 -1.2822e-06C0.979712 -1.31312e-06 0.640574 0.140474 0.390525 0.390523C0.140477 0.640571 1.31312e-06 0.979709 1.2822e-06 1.33333L1.16564e-07 14.6667C8.56491e-08 15.0203 0.140475 15.3594 0.390524 15.6095C0.640573 15.8595 0.979711 16 1.33333 16V16ZM14.3333 10.6667L9 10.6667C8.91159 10.6667 8.82681 10.6315 8.7643 10.569C8.70179 10.5065 8.66667 10.4217 8.66667 10.3333L8.66667 7C8.66667 6.91159 8.70179 6.82681 8.7643 6.7643C8.82681 6.70178 8.9116 6.66667 9 6.66667L14.3333 6.66667C14.4217 6.66667 14.5065 6.70178 14.569 6.7643C14.6315 6.82681 14.6667 6.91159 14.6667 7L14.6667 10.3333C14.6667 10.4217 14.6315 10.5065 14.569 10.569C14.5065 10.6315 14.4217 10.6667 14.3333 10.6667ZM7 10.6667L1.66667 10.6667C1.57826 10.6667 1.49348 10.6315 1.43096 10.569C1.36845 10.5065 1.33333 10.4217 1.33333 10.3333L1.33333 7C1.33333 6.91159 1.36845 6.82681 1.43096 6.7643C1.49348 6.70178 1.57826 6.66666 1.66667 6.66666L7 6.66667C7.08841 6.66667 7.17319 6.70178 7.2357 6.7643C7.29821 6.82681 7.33333 6.91159 7.33333 7L7.33333 10.3333C7.33333 10.4217 7.29821 10.5065 7.2357 10.569C7.17319 10.6315 7.08841 10.6667 7 10.6667ZM1.33333 14.3333L1.33333 12.3333C1.33333 12.2449 1.36845 12.1601 1.43096 12.0976C1.49348 12.0351 1.57826 12 1.66667 12L14.3333 12C14.4217 12 14.5065 12.0351 14.569 12.0976C14.6315 12.1601 14.6667 12.2449 14.6667 12.3333L14.6667 14.3333C14.6667 14.4217 14.6315 14.5065 14.569 14.569C14.5065 14.6315 14.4217 14.6667 14.3333 14.6667L1.66667 14.6667C1.57826 14.6667 1.49348 14.6315 1.43096 14.569C1.36845 14.5065 1.33333 14.4217 1.33333 14.3333ZM14.3333 5.33333L9 5.33333C8.9116 5.33333 8.82681 5.29821 8.7643 5.2357C8.70179 5.17319 8.66667 5.0884 8.66667 5L8.66667 1.66667C8.66667 1.57826 8.70179 1.49348 8.7643 1.43096C8.82681 1.36845 8.9116 1.33333 9 1.33333L14.3333 1.33333C14.4217 1.33333 14.5065 1.36845 14.569 1.43096C14.6315 1.49348 14.6667 1.57826 14.6667 1.66667L14.6667 5C14.6667 5.08841 14.6315 5.17319 14.569 5.2357C14.5065 5.29821 14.4217 5.33333 14.3333 5.33333ZM7.33333 1.66667L7.33333 5C7.33333 5.0884 7.29821 5.17319 7.2357 5.2357C7.17319 5.29821 7.08841 5.33333 7 5.33333L1.66667 5.33333C1.57826 5.33333 1.49348 5.29821 1.43096 5.2357C1.36845 5.17319 1.33333 5.0884 1.33333 5L1.33333 1.66666C1.33333 1.57826 1.36845 1.49347 1.43096 1.43096C1.49348 1.36845 1.57826 1.33333 1.66667 1.33333L7 1.33333C7.08841 1.33333 7.17319 1.36845 7.2357 1.43096C7.29822 1.49348 7.33333 1.57826 7.33333 1.66667Z" fill="white"/>
</g>
<defs>
<clipPath id="clip0">
<rect width="16" height="16" fill="white" transform="translate(16 16) rotate(-180)"/>
</clipPath>
</defs>
</svg>
