<svg version="1.1" viewBox="0.0 0.0 360.254593175853 286.29396325459317" fill="none" stroke="none" stroke-linecap="square" stroke-miterlimit="10" xmlns:xlink="http://www.w3.org/1999/xlink" xmlns="http://www.w3.org/2000/svg"><clipPath id="p.0"><path d="m0 0l360.2546 0l0 286.29398l-360.2546 0l0 -286.29398z" clip-rule="nonzero"/></clipPath><g clip-path="url(#p.0)"><path fill="#000000" fill-opacity="0.0" d="m0 0l360.2546 0l0 286.29398l-360.2546 0z" fill-rule="evenodd"/><path fill="#000000" fill-opacity="0.0" d="m42.425198 147.56693l60.629917 60.661423" fill-rule="evenodd"/><path stroke="#000000" stroke-width="8.0" stroke-linejoin="round" stroke-linecap="butt" d="m42.425198 147.56693l26.697613 26.711472" fill-rule="evenodd"/><path fill="#000000" stroke="#000000" stroke-width="8.0" stroke-linecap="butt" d="m59.77677 183.6196l35.010727 16.336838l-16.318657 -35.01921z" fill-rule="evenodd"/><path fill="#000000" fill-opacity="0.0" d="m42.425198 147.56693l64.06299 -61.826767" fill-rule="evenodd"/><path stroke="#000000" stroke-width="8.0" stroke-linejoin="round" stroke-linecap="butt" d="m42.425198 147.56693l29.52441 -28.493813" fill-rule="evenodd"/><path fill="#000000" stroke="#000000" stroke-width="8.0" stroke-linecap="butt" d="m81.12579 128.58119l16.94706 -34.719444l-35.299435 15.703285z" fill-rule="evenodd"/><path fill="#000000" fill-opacity="0.0" d="m274.9134 194.61154l77.82675 0" fill-rule="evenodd"/><path stroke="#0000ff" stroke-width="8.0" stroke-linejoin="round" stroke-linecap="butt" d="m274.9134 194.61154l29.826752 0" fill-rule="evenodd"/><path fill="#0000ff" stroke="#0000ff" stroke-width="8.0" stroke-linecap="butt" d="m304.74017 207.82541l36.30478 -13.213867l-36.30478 -13.213852z" fill-rule="evenodd"/><path fill="#000000" fill-opacity="0.0" d="m273.94226 75.85827l77.82678 0" fill-rule="evenodd"/><path stroke="#ff0000" stroke-width="8.0" stroke-linejoin="round" stroke-linecap="butt" d="m273.94226 75.85827l29.826782 0" fill-rule="evenodd"/><path fill="#ff0000" stroke="#ff0000" stroke-width="8.0" stroke-linecap="butt" d="m303.76904 89.07213l36.30478 -13.21386l-36.30478 -13.21386z" fill-rule="evenodd"/><path fill="#a4c2f4" d="m101.54811 63.993458l0 0c-1.5904465 -8.333168 3.6312943 -16.582497 13.44944 -21.247494c9.818146 -4.665001 22.51081 -4.9275284 32.692024 -0.6761818l0 0c3.606491 -4.845249 10.207428 -8.190559 17.806152 -9.02404c7.5987396 -0.83348083 15.30275 0.9427681 20.781738 4.791458l0 0c3.0722656 -4.393013 9.104736 -7.3445587 15.956741 -7.807272c6.8520203 -0.46271324 13.553864 1.628891 17.727371 5.5326023l0 0c5.5505066 -4.656584 14.3815 -6.617199 22.671768 -5.033478c8.290253 1.5837212 14.550766 6.427334 16.072617 12.434971l0 0c6.800293 1.3224907 12.464813 4.684433 15.529999 9.217213c3.0651855 4.5327797 3.2303772 9.79174 0.45288086 14.418129l0 0c6.6963196 6.2137527 8.262756 14.4935 4.114746 21.74939c-4.1480103 7.25589 -13.387299 12.397812 -24.269897 13.506882c-0.07670593 6.8099136 -5.3150177 13.058609 -13.695877 16.337563c-8.380844 3.2789536 -18.595535 3.076149 -26.706879 -0.5302429l0 0c-3.4550018 8.156052 -13.179672 14.157188 -24.972595 15.410713c-11.792923 1.2535248 -23.539978 -2.4653015 -30.166016 -9.549789l0 0c-8.122131 3.4919739 -17.868027 4.4978943 -27.039185 2.790863c-9.171173 -1.7070312 -16.995079 -5.983238 -21.70681 -11.863983l0 0c-8.299805 0.69247437 -16.324562 -2.3734055 -20.091629 -7.676056c-3.7670593 -5.3026505 -2.4745026 -11.713264 3.2361832 -16.05027l0 0c-7.4036407 -3.1068268 -11.181419 -9.271805 -9.36338 -15.2801285c1.818039 -6.0083313 8.819923 -10.498512 17.354446 -11.129082z" fill-rule="evenodd"/><path fill="#000000" fill-opacity="0.0" d="m93.39298 90.72384l0 0c3.4937973 1.4661179 7.5299606 2.1311874 11.566551 1.9059067m5.287079 21.820953c1.7358856 -0.1448288 3.437378 -0.45152283 5.060608 -0.9121704m43.682953 9.984909c-1.2209015 -1.3053818 -2.2431183 -2.7002945 -3.0492096 -4.1609726m58.18994 -1.7001953l0 0c0.6298981 -1.486969 1.0380096 -3.0173798 1.2175446 -4.5657043m39.18367 -11.241043c0.08166504 -7.250206 -5.694092 -13.888565 -14.846436 -17.063713m35.00139 -18.191795c-1.4821777 2.468834 -3.744934 4.6588974 -6.610779 6.3984833m-9.370728 -30.034473l0 0c0.25256348 0.99697113 0.3694458 2.0089264 0.34902954 3.0218353m-39.092728 -10.423027l0 0c-1.3845825 1.1615868 -2.5252838 2.4596443 -3.386612 3.853756m-30.297821 -1.5795937l0 0c-0.737854 1.0550613 -1.2888489 2.1714935 -1.6402588 3.3235855m-36.94821 0.9090843l0 0c2.1543427 0.8995819 4.1474 1.9823265 5.9353943 3.2244453m-52.07625 18.699348l0 0c0.21920013 1.1485252 0.5655594 2.2828941 1.03582 3.3924828" fill-rule="evenodd"/><path fill="#000000" d="m134.86028 73.3691l0 -15.265625l3.0 0l6.25 10.1875l0 -10.1875l2.859375 0l0 15.265625l-3.078125 0l-6.15625 -9.953125l0 9.953125l-2.875 0zm21.761871 -3.515625l2.90625 0.484375q-0.546875 1.609375 -1.765625 2.453125q-1.21875 0.828125 -3.03125 0.828125q-2.890625 0 -4.28125 -1.890625q-1.09375 -1.5 -1.09375 -3.8125q0 -2.75 1.4375 -4.296875q1.4375 -1.5625 3.640625 -1.5625q2.46875 0 3.890625 1.640625q1.421875 1.625 1.359375 4.984375l-7.328125 0q0.03125 1.296875 0.703125 2.03125q0.6875 0.71875 1.703125 0.71875q0.6875 0 1.15625 -0.375q0.46875 -0.375 0.703125 -1.203125zm0.171875 -2.96875q-0.03125 -1.265625 -0.65625 -1.921875q-0.625 -0.671875 -1.53125 -0.671875q-0.953125 0 -1.578125 0.703125q-0.625 0.703125 -0.609375 1.890625l4.375 0zm10.361694 -4.578125l0 2.328125l-2.0 0l0 4.46875q0 1.34375 0.046875 1.578125q0.0625 0.21875 0.265625 0.375q0.203125 0.140625 0.5 0.140625q0.40625 0 1.171875 -0.28125l0.25 2.265625q-1.015625 0.4375 -2.3125 0.4375q-0.796875 0 -1.4375 -0.265625q-0.625 -0.265625 -0.921875 -0.6875q-0.296875 -0.421875 -0.40625 -1.140625q-0.09375 -0.515625 -0.09375 -2.0625l0 -4.828125l-1.34375 0l0 -2.328125l1.34375 0l0 -2.1875l2.9375 -1.71875l0 3.90625l2.0 0zm4.0868073 11.0625l-3.5 -11.0625l2.84375 0l2.078125 7.25l1.90625 -7.25l2.8125 0l1.84375 7.25l2.109375 -7.25l2.890625 0l-3.546875 11.0625l-2.8125 0l-1.90625 -7.109375l-1.875 7.109375l-2.84375 0zm13.855331 -5.6875q0 -1.453125 0.71875 -2.8125q0.71875 -1.375 2.03125 -2.09375q1.3125 -0.71875 2.9375 -0.71875q2.515625 0 4.109375 1.640625q1.609375 1.625 1.609375 4.109375q0 2.515625 -1.625 4.171875q-1.609375 1.640625 -4.0625 1.640625q-1.53125 0 -2.90625 -0.6875q-1.375 -0.6875 -2.09375 -2.015625q-0.71875 -1.328125 -0.71875 -3.234375zm3.0 0.15625q0 1.640625 0.78125 2.515625q0.78125 0.875 1.921875 0.875q1.140625 0 1.921875 -0.875q0.78125 -0.875 0.78125 -2.53125q0 -1.625 -0.78125 -2.5q-0.78125 -0.875 -1.921875 -0.875q-1.140625 0 -1.921875 0.875q-0.78125 0.875 -0.78125 2.515625zm13.496826 5.53125l-2.921875 0l0 -11.0625l2.71875 0l0 1.578125q0.703125 -1.125 1.25 -1.46875q0.5625 -0.359375 1.265625 -0.359375q1.0 0 1.9375 0.5625l-0.90625 2.546875q-0.75 -0.484375 -1.375 -0.484375q-0.625 0 -1.046875 0.34375q-0.421875 0.328125 -0.671875 1.21875q-0.25 0.890625 -0.25 3.703125l0 3.421875zm5.393814 0l0 -15.265625l2.9375 0l0 8.09375l3.421875 -3.890625l3.59375 0l-3.765625 4.046875l4.046875 7.015625l-3.15625 0l-2.78125 -4.96875l-1.359375 1.421875l0 3.546875l-2.9375 0z" fill-rule="nonzero"/><path fill="#000000" d="m145.40454 88.3066l2.71875 0l0 1.625q0.53125 -0.828125 1.4375 -1.34375q0.90625 -0.53125 2.015625 -0.53125q1.921875 0 3.265625 1.515625q1.34375 1.5 1.34375 4.203125q0 2.765625 -1.359375 4.3125q-1.34375 1.53125 -3.265625 1.53125q-0.921875 0 -1.671875 -0.359375q-0.734375 -0.375 -1.5625 -1.25l0 5.5625l-2.921875 0l0 -15.265625zm2.890625 5.34375q0 1.859375 0.734375 2.75q0.75 0.890625 1.8125 0.890625q1.015625 0 1.6875 -0.8125q0.6875 -0.8125 0.6875 -2.6875q0 -1.734375 -0.703125 -2.578125q-0.703125 -0.84375 -1.734375 -0.84375q-1.0625 0 -1.78125 0.828125q-0.703125 0.828125 -0.703125 2.453125zm12.403076 -1.96875l-2.65625 -0.484375q0.453125 -1.59375 1.546875 -2.359375q1.09375 -0.78125 3.25 -0.78125q1.953125 0 2.90625 0.46875q0.96875 0.453125 1.359375 1.171875q0.390625 0.71875 0.390625 2.625l-0.03125 3.40625q0 1.46875 0.125 2.15625q0.140625 0.6875 0.53125 1.484375l-2.890625 0q-0.109375 -0.296875 -0.28125 -0.859375q-0.078125 -0.265625 -0.109375 -0.34375q-0.75 0.71875 -1.609375 1.09375q-0.84375 0.359375 -1.8125 0.359375q-1.703125 0 -2.6875 -0.921875q-0.984375 -0.9375 -0.984375 -2.34375q0 -0.9375 0.4375 -1.671875q0.453125 -0.734375 1.25 -1.125q0.8125 -0.390625 2.34375 -0.6875q2.046875 -0.390625 2.84375 -0.71875l0 -0.296875q0 -0.84375 -0.421875 -1.203125q-0.421875 -0.359375 -1.578125 -0.359375q-0.78125 0 -1.21875 0.3125q-0.4375 0.3125 -0.703125 1.078125zm3.921875 2.375q-0.5625 0.1875 -1.78125 0.453125q-1.21875 0.25 -1.59375 0.5q-0.578125 0.40625 -0.578125 1.03125q0 0.625 0.453125 1.078125q0.46875 0.4375 1.171875 0.4375q0.796875 0 1.515625 -0.515625q0.53125 -0.40625 0.6875 -0.96875q0.125 -0.375 0.125 -1.4375l0 -0.578125zm10.830444 -5.75l0 2.328125l-2.0 0l0 4.46875q0 1.34375 0.046875 1.578125q0.0625 0.21875 0.265625 0.375q0.203125 0.140625 0.5 0.140625q0.40625 0 1.171875 -0.28125l0.25 2.265625q-1.015625 0.4375 -2.3125 0.4375q-0.796875 0 -1.4375 -0.265625q-0.625 -0.265625 -0.921875 -0.6875q-0.296875 -0.421875 -0.40625 -1.140625q-0.09375 -0.515625 -0.09375 -2.0625l0 -4.828125l-1.34375 0l0 -2.328125l1.34375 0l0 -2.1875l2.9375 -1.71875l0 3.90625l2.0 0zm4.9461823 -4.203125l0 5.609375q1.40625 -1.65625 3.375 -1.65625q1.015625 0 1.828125 0.375q0.8125 0.375 1.21875 0.96875q0.40625 0.578125 0.5625 1.28125q0.15625 0.703125 0.15625 2.203125l0 6.484375l-2.921875 0l0 -5.84375q0 -1.734375 -0.171875 -2.203125q-0.171875 -0.46875 -0.59375 -0.75q-0.421875 -0.28125 -1.046875 -0.28125q-0.734375 0 -1.3125 0.359375q-0.5625 0.359375 -0.828125 1.078125q-0.265625 0.703125 -0.265625 2.09375l0 5.546875l-2.9375 0l0 -15.265625l2.9375 0zm22.89122 15.265625l-2.921875 0l0 -11.03125q-1.609375 1.5 -3.78125 2.21875l0 -2.65625q1.140625 -0.375 2.484375 -1.421875q1.34375 -1.046875 1.84375 -2.4375l2.375 0l0 15.328125z" fill-rule="nonzero"/><path fill="#a4c2f4" d="m101.54811 188.21655l0 0c-1.5904465 -8.33316 3.6312943 -16.582489 13.44944 -21.247498c9.818146 -4.6649933 22.51081 -4.9275208 32.692024 -0.676178l0 0c3.606491 -4.8452454 10.207428 -8.190552 17.806152 -9.024033c7.5987396 -0.83348083 15.30275 0.9427643 20.781738 4.791458l0 0c3.0722656 -4.3930206 9.104736 -7.3445587 15.956741 -7.8072815c6.8520203 -0.46270752 13.553864 1.628891 17.727371 5.532608l0 0c5.5505066 -4.6565857 14.3815 -6.6172028 22.671768 -5.033478c8.290253 1.583725 14.550766 6.4273376 16.072617 12.434967l0 0c6.800293 1.3224945 12.464813 4.684433 15.529999 9.217209c3.0651855 4.532791 3.2303772 9.791748 0.45288086 14.418137l0 0c6.6963196 6.213745 8.262756 14.4935 4.114746 21.74939c-4.1480103 7.25589 -13.387299 12.397812 -24.269897 13.506882c-0.07670593 6.809906 -5.3150177 13.058609 -13.695877 16.337555c-8.380844 3.2789612 -18.595535 3.0761566 -26.706879 -0.5302429l0 0c-3.4550018 8.156052 -13.179672 14.157196 -24.972595 15.410706c-11.792923 1.25354 -23.539978 -2.4652863 -30.166016 -9.549774l0 0c-8.122131 3.4919739 -17.868027 4.4978943 -27.039185 2.790863c-9.171173 -1.7070312 -16.995079 -5.9832306 -21.70681 -11.863983l0 0c-8.299805 0.69247437 -16.324562 -2.373413 -20.091629 -7.676056c-3.7670593 -5.302658 -2.4745026 -11.713257 3.2361832 -16.050278l0 0c-7.4036407 -3.1068268 -11.181419 -9.27179 -9.36338 -15.280121c1.818039 -6.0083313 8.819923 -10.49852 17.354446 -11.129089z" fill-rule="evenodd"/><path fill="#000000" fill-opacity="0.0" d="m93.39298 214.94693l0 0c3.4937973 1.4661255 7.5299606 2.131195 11.566551 1.9059143m5.287079 21.820953c1.7358856 -0.14483643 3.437378 -0.45152283 5.060608 -0.9121704m43.682953 9.984909c-1.2209015 -1.3053894 -2.2431183 -2.7003021 -3.0492096 -4.16098m58.18994 -1.7001953l0 0c0.6298981 -1.486969 1.0380096 -3.0173798 1.2175446 -4.5657043m39.18367 -11.241043c0.08166504 -7.2501984 -5.694092 -13.888565 -14.846436 -17.063705m35.00139 -18.191788c-1.4821777 2.4688263 -3.744934 4.65889 -6.610779 6.398468m-9.370728 -30.03447l0 0c0.25256348 0.99697876 0.3694458 2.0089264 0.34902954 3.0218353m-39.092728 -10.423019l0 0c-1.3845825 1.1615753 -2.5252838 2.4596405 -3.386612 3.8537445m-30.297821 -1.5795898l0 0c-0.737854 1.055069 -1.2888489 2.1714935 -1.6402588 3.3235931m-36.94821 0.9090729l0 0c2.1543427 0.8995819 4.1474 1.9823303 5.9353943 3.2244568m-52.07625 18.69934l0 0c0.21920013 1.148529 0.5655594 2.282898 1.03582 3.3924866" fill-rule="evenodd"/><path fill="#000000" d="m134.86028 197.59221l0 -15.265625l3.0 0l6.25 10.1875l0 -10.1875l2.859375 0l0 15.265625l-3.078125 0l-6.15625 -9.953125l0 9.953125l-2.875 0zm21.761871 -3.515625l2.90625 0.484375q-0.546875 1.609375 -1.765625 2.453125q-1.21875 0.828125 -3.03125 0.828125q-2.890625 0 -4.28125 -1.890625q-1.09375 -1.5 -1.09375 -3.8125q0 -2.75 1.4375 -4.296875q1.4375 -1.5625 3.640625 -1.5625q2.46875 0 3.890625 1.640625q1.421875 1.625 1.359375 4.984375l-7.328125 0q0.03125 1.296875 0.703125 2.03125q0.6875 0.71875 1.703125 0.71875q0.6875 0 1.15625 -0.375q0.46875 -0.375 0.703125 -1.203125zm0.171875 -2.96875q-0.03125 -1.265625 -0.65625 -1.921875q-0.625 -0.671875 -1.53125 -0.671875q-0.953125 0 -1.578125 0.703125q-0.625 0.703125 -0.609375 1.890625l4.375 0zm10.361694 -4.578125l0 2.328125l-2.0 0l0 4.46875q0 1.34375 0.046875 1.578125q0.0625 0.21875 0.265625 0.375q0.203125 0.140625 0.5 0.140625q0.40625 0 1.171875 -0.28125l0.25 2.265625q-1.015625 0.4375 -2.3125 0.4375q-0.796875 0 -1.4375 -0.265625q-0.625 -0.265625 -0.921875 -0.6875q-0.296875 -0.421875 -0.40625 -1.140625q-0.09375 -0.515625 -0.09375 -2.0625l0 -4.828125l-1.34375 0l0 -2.328125l1.34375 0l0 -2.1875l2.9375 -1.71875l0 3.90625l2.0 0zm4.0868073 11.0625l-3.5 -11.0625l2.84375 0l2.078125 7.25l1.90625 -7.25l2.8125 0l1.84375 7.25l2.109375 -7.25l2.890625 0l-3.546875 11.0625l-2.8125 0l-1.90625 -7.109375l-1.875 7.109375l-2.84375 0zm13.855331 -5.6875q0 -1.453125 0.71875 -2.8125q0.71875 -1.375 2.03125 -2.09375q1.3125 -0.71875 2.9375 -0.71875q2.515625 0 4.109375 1.640625q1.609375 1.625 1.609375 4.109375q0 2.515625 -1.625 4.171875q-1.609375 1.640625 -4.0625 1.640625q-1.53125 0 -2.90625 -0.6875q-1.375 -0.6875 -2.09375 -2.015625q-0.71875 -1.328125 -0.71875 -3.234375zm3.0 0.15625q0 1.640625 0.78125 2.515625q0.78125 0.875 1.921875 0.875q1.140625 0 1.921875 -0.875q0.78125 -0.875 0.78125 -2.53125q0 -1.625 -0.78125 -2.5q-0.78125 -0.875 -1.921875 -0.875q-1.140625 0 -1.921875 0.875q-0.78125 0.875 -0.78125 2.515625zm13.496826 5.53125l-2.921875 0l0 -11.0625l2.71875 0l0 1.578125q0.703125 -1.125 1.25 -1.46875q0.5625 -0.359375 1.265625 -0.359375q1.0 0 1.9375 0.5625l-0.90625 2.546875q-0.75 -0.484375 -1.375 -0.484375q-0.625 0 -1.046875 0.34375q-0.421875 0.328125 -0.671875 1.21875q-0.25 0.890625 -0.25 3.703125l0 3.421875zm5.393814 0l0 -15.265625l2.9375 0l0 8.09375l3.421875 -3.890625l3.59375 0l-3.765625 4.046875l4.046875 7.015625l-3.15625 0l-2.78125 -4.96875l-1.359375 1.421875l0 3.546875l-2.9375 0z" fill-rule="nonzero"/><path fill="#000000" d="m145.40454 212.5297l2.71875 0l0 1.625q0.53125 -0.828125 1.4375 -1.34375q0.90625 -0.53125 2.015625 -0.53125q1.921875 0 3.265625 1.515625q1.34375 1.5 1.34375 4.203125q0 2.765625 -1.359375 4.3125q-1.34375 1.53125 -3.265625 1.53125q-0.921875 0 -1.671875 -0.359375q-0.734375 -0.375 -1.5625 -1.25l0 5.5625l-2.921875 0l0 -15.265625zm2.890625 5.34375q0 1.859375 0.734375 2.75q0.75 0.890625 1.8125 0.890625q1.015625 0 1.6875 -0.8125q0.6875 -0.8125 0.6875 -2.6875q0 -1.734375 -0.703125 -2.578125q-0.703125 -0.84375 -1.734375 -0.84375q-1.0625 0 -1.78125 0.828125q-0.703125 0.828125 -0.703125 2.453125zm12.403076 -1.96875l-2.65625 -0.484375q0.453125 -1.59375 1.546875 -2.359375q1.09375 -0.78125 3.25 -0.78125q1.953125 0 2.90625 0.46875q0.96875 0.453125 1.359375 1.171875q0.390625 0.71875 0.390625 2.625l-0.03125 3.40625q0 1.46875 0.125 2.15625q0.140625 0.6875 0.53125 1.484375l-2.890625 0q-0.109375 -0.296875 -0.28125 -0.859375q-0.078125 -0.265625 -0.109375 -0.34375q-0.75 0.71875 -1.609375 1.09375q-0.84375 0.359375 -1.8125 0.359375q-1.703125 0 -2.6875 -0.921875q-0.984375 -0.9375 -0.984375 -2.34375q0 -0.9375 0.4375 -1.671875q0.453125 -0.734375 1.25 -1.125q0.8125 -0.390625 2.34375 -0.6875q2.046875 -0.390625 2.84375 -0.71875l0 -0.296875q0 -0.84375 -0.421875 -1.203125q-0.421875 -0.359375 -1.578125 -0.359375q-0.78125 0 -1.21875 0.3125q-0.4375 0.3125 -0.703125 1.078125zm3.921875 2.375q-0.5625 0.1875 -1.78125 0.453125q-1.21875 0.25 -1.59375 0.5q-0.578125 0.40625 -0.578125 1.03125q0 0.625 0.453125 1.078125q0.46875 0.4375 1.171875 0.4375q0.796875 0 1.515625 -0.515625q0.53125 -0.40625 0.6875 -0.96875q0.125 -0.375 0.125 -1.4375l0 -0.578125zm10.830444 -5.75l0 2.328125l-2.0 0l0 4.46875q0 1.34375 0.046875 1.578125q0.0625 0.21875 0.265625 0.375q0.203125 0.140625 0.5 0.140625q0.40625 0 1.171875 -0.28125l0.25 2.265625q-1.015625 0.4375 -2.3125 0.4375q-0.796875 0 -1.4375 -0.265625q-0.625 -0.265625 -0.921875 -0.6875q-0.296875 -0.421875 -0.40625 -1.140625q-0.09375 -0.515625 -0.09375 -2.0625l0 -4.828125l-1.34375 0l0 -2.328125l1.34375 0l0 -2.1875l2.9375 -1.71875l0 3.90625l2.0 0zm4.9461823 -4.203125l0 5.609375q1.40625 -1.65625 3.375 -1.65625q1.015625 0 1.828125 0.375q0.8125 0.375 1.21875 0.96875q0.40625 0.578125 0.5625 1.28125q0.15625 0.703125 0.15625 2.203125l0 6.484375l-2.921875 0l0 -5.84375q0 -1.734375 -0.171875 -2.203125q-0.171875 -0.46875 -0.59375 -0.75q-0.421875 -0.28125 -1.046875 -0.28125q-0.734375 0 -1.3125 0.359375q-0.5625 0.359375 -0.828125 1.078125q-0.265625 0.703125 -0.265625 2.09375l0 5.546875l-2.9375 0l0 -15.265625l2.9375 0zm25.281845 12.546875l0 2.71875l-10.25 0q0.171875 -1.546875 1.0 -2.921875q0.828125 -1.375 3.296875 -3.65625q1.96875 -1.84375 2.421875 -2.5q0.609375 -0.90625 0.609375 -1.796875q0 -0.96875 -0.53125 -1.5q-0.53125 -0.53125 -1.453125 -0.53125q-0.921875 0 -1.46875 0.5625q-0.53125 0.546875 -0.609375 1.828125l-2.921875 -0.296875q0.265625 -2.40625 1.640625 -3.453125q1.375 -1.0625 3.4375 -1.0625q2.25 0 3.53125 1.21875q1.296875 1.21875 1.296875 3.03125q0 1.03125 -0.375 1.96875q-0.359375 0.921875 -1.15625 1.9375q-0.53125 0.6875 -1.921875 1.953125q-1.375 1.265625 -1.75 1.6875q-0.375 0.421875 -0.59375 0.8125l5.796875 0z" fill-rule="nonzero"/><path fill="#a4c2f4" d="m9.952756 132.93701l32.472443 0l0 29.259842l-32.472443 0z" fill-rule="evenodd"/></g></svg>