<svg width="18" height="18" viewBox="0 0 18 18" fill="none" xmlns="http://www.w3.org/2000/svg">
<path d="M8.49899 10.563C8.56475 10.6289 8.64285 10.6811 8.72881 10.7167C8.81478 10.7524 8.90693 10.7707 8.99999 10.7707C9.09306 10.7707 9.18521 10.7524 9.27117 10.7167C9.35714 10.6811 9.43524 10.6289 9.50099 10.563L16.23 3.834C16.3292 3.73498 16.3967 3.60876 16.4241 3.47133C16.4515 3.33389 16.4374 3.19142 16.3838 3.06196C16.3301 2.9325 16.2393 2.82187 16.1227 2.74408C16.0062 2.6663 15.8691 2.62485 15.729 2.625H14.667C14.574 2.6249 14.4819 2.64314 14.3959 2.67865C14.3099 2.71417 14.2318 2.76628 14.166 2.832L9.26549 7.73325C9.23066 7.76817 9.18928 7.79588 9.14372 7.81478C9.09816 7.83369 9.04932 7.84342 8.99999 7.84342C8.95067 7.84342 8.90183 7.83369 8.85627 7.81478C8.81071 7.79588 8.76933 7.76817 8.73449 7.73325L3.83399 2.832C3.76818 2.76628 3.69005 2.71417 3.60409 2.67865C3.51813 2.64314 3.42601 2.6249 3.33299 2.625H2.27099C2.13086 2.62485 1.99383 2.6663 1.87726 2.74408C1.7607 2.82187 1.66984 2.9325 1.61619 3.06196C1.56254 3.19142 1.54852 3.33389 1.5759 3.47133C1.60328 3.60876 1.67083 3.73498 1.76999 3.834L8.49899 10.563Z" fill="#40A2FF"/>
<path d="M16.7918 13.2495H1.20826C0.926399 13.2495 0.656084 13.3615 0.45678 13.5608C0.257476 13.7601 0.145508 14.0304 0.145508 14.3123C0.145508 14.5941 0.257476 14.8644 0.45678 15.0637C0.656084 15.263 0.926399 15.375 1.20826 15.375H16.7918C16.9313 15.375 17.0695 15.3475 17.1985 15.2941C17.3274 15.2407 17.4445 15.1624 17.5432 15.0637C17.6419 14.9651 17.7202 14.8479 17.7736 14.719C17.827 14.59 17.8545 14.4518 17.8545 14.3123C17.8545 14.1727 17.827 14.0345 17.7736 13.9056C17.7202 13.7766 17.6419 13.6595 17.5432 13.5608C17.4445 13.4621 17.3274 13.3838 17.1985 13.3304C17.0695 13.277 16.9313 13.2495 16.7918 13.2495Z" fill="#40A2FF"/>
</svg>
