<svg width="18" height="18" viewBox="0 0 18 18" fill="none" xmlns="http://www.w3.org/2000/svg">
<path d="M16.7145 18C17.0554 17.9996 17.3823 17.8639 17.6233 17.6228C17.8643 17.3816 17.9998 17.0547 18 16.7137V1.2855C17.9996 0.944686 17.864 0.617945 17.623 0.376953C17.3821 0.135961 17.0553 0.000396988 16.7145 0L1.2855 0C0.944686 0.000396988 0.617945 0.135961 0.376953 0.376953C0.135961 0.617945 0.000396988 0.944686 0 1.2855L0 16.7137C0.000198454 17.0547 0.135675 17.3816 0.376688 17.6228C0.617701 17.8639 0.944556 17.9996 1.2855 18H16.7145ZM7.16325 6.612H10.8383C10.9357 6.612 11.0292 6.65072 11.0981 6.71964C11.167 6.78856 11.2057 6.88203 11.2057 6.9795V10.098C11.2057 10.1477 11.2255 10.1954 11.2607 10.2306C11.2958 10.2657 11.3435 10.2855 11.3932 10.2855H12.675C12.8185 10.2573 12.9673 10.2797 13.0961 10.3487C13.225 10.4178 13.326 10.5294 13.3819 10.6645C13.4378 10.7996 13.4453 10.9499 13.4029 11.0898C13.3606 11.2298 13.2712 11.3508 13.1498 11.4323L9.78075 14.8013C9.57373 15.0073 9.29356 15.1229 9.0015 15.1229C8.70944 15.1229 8.42927 15.0073 8.22225 14.8013L4.85175 11.4323C4.73064 11.3508 4.64141 11.2299 4.59916 11.0902C4.55692 10.9505 4.56426 10.8005 4.61995 10.6656C4.67563 10.5306 4.77623 10.4191 4.90472 10.3498C5.0332 10.2806 5.18168 10.2578 5.325 10.2855H6.60825C6.65798 10.2855 6.70567 10.2657 6.74083 10.2306C6.776 10.1954 6.79575 10.1477 6.79575 10.098V6.9795C6.79575 6.88203 6.83447 6.78856 6.90339 6.71964C6.97231 6.65072 7.06578 6.612 7.16325 6.612ZM6.79575 4.77525V2.9385C6.79575 2.84103 6.83447 2.74756 6.90339 2.67864C6.97231 2.60972 7.06578 2.571 7.16325 2.571H10.8383C10.9357 2.571 11.0292 2.60972 11.0981 2.67864C11.167 2.74756 11.2057 2.84103 11.2057 2.9385V4.77525C11.2057 4.87272 11.167 4.96619 11.0981 5.03511C11.0292 5.10403 10.9357 5.14275 10.8383 5.14275H7.16325C7.06578 5.14275 6.97231 5.10403 6.90339 5.03511C6.83447 4.96619 6.79575 4.87272 6.79575 4.77525Z" fill="white"/>
</svg>
