<svg width="18" height="18" viewBox="0 0 18 18" fill="none" xmlns="http://www.w3.org/2000/svg">
<g clip-path="url(#clip0)">
<path d="M9 0C7.21997 0 5.47991 0.527841 3.99987 1.51677C2.51983 2.50571 1.36628 3.91131 0.685088 5.55585C0.00389957 7.20038 -0.17433 9.00998 0.172937 10.7558C0.520204 12.5016 1.37737 14.1053 2.63604 15.364C3.89472 16.6226 5.49836 17.4798 7.24419 17.8271C8.99002 18.1743 10.7996 17.9961 12.4442 17.3149C14.0887 16.6337 15.4943 15.4802 16.4832 14.0001C17.4722 12.5201 18 10.78 18 9C17.9974 6.61384 17.0484 4.32616 15.3611 2.63889C13.6738 0.951621 11.3862 0.00258081 9 0V0ZM9 14.25C8.7775 14.25 8.55999 14.184 8.37499 14.0604C8.18998 13.9368 8.04579 13.7611 7.96064 13.5555C7.87549 13.35 7.85321 13.1238 7.89662 12.9055C7.94003 12.6873 8.04718 12.4868 8.20451 12.3295C8.36184 12.1722 8.5623 12.065 8.78053 12.0216C8.99876 11.9782 9.22496 12.0005 9.43052 12.0856C9.63609 12.1708 9.81179 12.315 9.93541 12.5C10.059 12.685 10.125 12.9025 10.125 13.125C10.125 13.4234 10.0065 13.7095 9.7955 13.9205C9.58452 14.1315 9.29837 14.25 9 14.25ZM10.2 9.69C10.0662 9.7484 9.95234 9.84458 9.87241 9.96675C9.79247 10.0889 9.74993 10.2318 9.75 10.3778C9.75 10.5767 9.67099 10.7674 9.53033 10.9081C9.38968 11.0487 9.19892 11.1278 9 11.1278C8.80109 11.1278 8.61033 11.0487 8.46967 10.9081C8.32902 10.7674 8.25 10.5767 8.25 10.3778C8.24994 9.93989 8.37763 9.51153 8.61743 9.14518C8.85722 8.77882 9.1987 8.49039 9.6 8.31525C9.84789 8.20706 10.0619 8.03386 10.2194 7.81399C10.3769 7.59411 10.472 7.33574 10.4947 7.06623C10.5174 6.79671 10.4668 6.52608 10.3482 6.28298C10.2297 6.03988 10.0476 5.83336 9.82126 5.68528C9.59494 5.53719 9.33278 5.45306 9.06255 5.44178C8.79232 5.4305 8.52406 5.4925 8.28618 5.62121C8.0483 5.74992 7.84965 5.94056 7.71126 6.17293C7.57286 6.40531 7.49987 6.67078 7.5 6.94125C7.5 7.14016 7.42099 7.33093 7.28033 7.47158C7.13968 7.61223 6.94892 7.69125 6.75 7.69125C6.55109 7.69125 6.36033 7.61223 6.21967 7.47158C6.07902 7.33093 6 7.14016 6 6.94125C6 6.40038 6.14621 5.86957 6.42318 5.40499C6.70014 4.94041 7.09755 4.55935 7.57335 4.30214C8.04915 4.04493 8.58564 3.92113 9.12603 3.94385C9.66642 3.96657 10.1906 4.13497 10.6432 4.43121C11.0957 4.72746 11.4597 5.14053 11.6967 5.62672C11.9337 6.11291 12.0348 6.65412 11.9894 7.19308C11.944 7.73204 11.7537 8.2487 11.4387 8.68838C11.1237 9.12806 10.6957 9.4744 10.2 9.69075V9.69Z" fill="white"/>
</g>
<defs>
<clipPath id="clip0">
<rect width="18" height="18" fill="white"/>
</clipPath>
</defs>
</svg>
