<svg version="1.1" viewBox="0.0 0.0 360.254593175853 286.29396325459317" fill="none" stroke="none" stroke-linecap="square" stroke-miterlimit="10" xmlns:xlink="http://www.w3.org/1999/xlink" xmlns="http://www.w3.org/2000/svg"><clipPath id="p.0"><path d="m0 0l360.2546 0l0 286.29398l-360.2546 0l0 -286.29398z" clip-rule="nonzero"/></clipPath><g clip-path="url(#p.0)"><path fill="#000000" fill-opacity="0.0" d="m0 0l360.2546 0l0 286.29398l-360.2546 0z" fill-rule="evenodd"/><path fill="#000000" fill-opacity="0.0" d="m274.9134 194.61154l77.82675 0" fill-rule="evenodd"/><path stroke="#0000ff" stroke-width="8.0" stroke-linejoin="round" stroke-linecap="butt" d="m274.9134 194.61154l29.826752 0" fill-rule="evenodd"/><path fill="#0000ff" stroke="#0000ff" stroke-width="8.0" stroke-linecap="butt" d="m304.74017 207.82541l36.30478 -13.213867l-36.30478 -13.213852z" fill-rule="evenodd"/><path fill="#000000" fill-opacity="0.0" d="m273.94226 75.85827l77.82678 0" fill-rule="evenodd"/><path stroke="#ff0000" stroke-width="8.0" stroke-linejoin="round" stroke-linecap="butt" d="m273.94226 75.85827l29.826782 0" fill-rule="evenodd"/><path fill="#ff0000" stroke="#ff0000" stroke-width="8.0" stroke-linecap="butt" d="m303.76904 89.07213l36.30478 -13.21386l-36.30478 -13.21386z" fill-rule="evenodd"/><path fill="#a4c2f4" d="m58.65354 54.588646l0 0c0 -19.905842 16.136879 -36.042717 36.042717 -36.042717l144.16653 0l0 0c9.559128 0 18.726746 3.797348 25.486053 10.556667c6.759308 6.759321 10.556671 15.926928 10.556671 25.486048l0 154.18228c0 19.905838 -16.136871 36.04271 -36.042725 36.04271l-144.16653 0l0 0c-19.905838 0 -36.042717 -16.136871 -36.042717 -36.04271z" fill-rule="evenodd"/><path fill="#000000" d="m102.42308 101.04417l3.9375 -0.390625q0.359375 1.984375 1.4375 2.921875q1.09375 0.921875 2.9375 0.921875q1.953125 0 2.9375 -0.828125q1.0 -0.828125 1.0 -1.9375q0 -0.703125 -0.421875 -1.203125q-0.421875 -0.5 -1.453125 -0.875q-0.71875 -0.25 -3.234375 -0.875q-3.265625 -0.796875 -4.578125 -1.984375q-1.84375 -1.65625 -1.84375 -4.03125q0 -1.53125 0.859375 -2.859375q0.875 -1.328125 2.5 -2.03125q1.640625 -0.703125 3.953125 -0.703125q3.78125 0 5.6875 1.65625q1.90625 1.65625 2.0 4.421875l-4.046875 0.171875q-0.265625 -1.546875 -1.125 -2.21875q-0.84375 -0.671875 -2.546875 -0.671875q-1.765625 0 -2.765625 0.71875q-0.640625 0.46875 -0.640625 1.25q0 0.703125 0.59375 1.21875q0.765625 0.640625 3.71875 1.34375q2.953125 0.6875 4.359375 1.4375q1.421875 0.734375 2.21875 2.03125q0.8125 1.296875 0.8125 3.1875q0 1.734375 -0.96875 3.234375q-0.953125 1.5 -2.703125 2.234375q-1.75 0.734375 -4.359375 0.734375q-3.796875 0 -5.84375 -1.75q-2.03125 -1.765625 -2.421875 -5.125zm24.207031 6.515625l0 -16.65625l-5.9375 0l0 -3.390625l15.921875 0l0 3.390625l-5.9375 0l0 16.65625l-4.046875 0zm32.507812 -3.5625l0 3.5625l-13.46875 0q0.21875 -2.03125 1.3125 -3.828125q1.09375 -1.8125 4.3125 -4.8125q2.59375 -2.421875 3.1875 -3.28125q0.796875 -1.1875 0.796875 -2.359375q0 -1.28125 -0.703125 -1.96875q-0.6875 -0.6875 -1.890625 -0.6875q-1.203125 0 -1.921875 0.734375q-0.703125 0.71875 -0.8125 2.390625l-3.828125 -0.375q0.328125 -3.171875 2.125 -4.546875q1.8125 -1.390625 4.53125 -1.390625q2.96875 0 4.65625 1.609375q1.703125 1.59375 1.703125 3.96875q0 1.359375 -0.5 2.578125q-0.484375 1.21875 -1.53125 2.5625q-0.703125 0.890625 -2.515625 2.5625q-1.8125 1.65625 -2.296875 2.203125q-0.484375 0.546875 -0.796875 1.078125l7.640625 0zm9.087891 -16.5625q2.90625 0 4.546875 2.078125q1.953125 2.453125 1.953125 8.15625q0 5.6875 -1.96875 8.1875q-1.625 2.046875 -4.53125 2.046875q-2.921875 0 -4.71875 -2.25q-1.796875 -2.25 -1.796875 -8.015625q0 -5.671875 1.96875 -8.15625q1.625 -2.046875 4.546875 -2.046875zm0 3.1875q-0.703125 0 -1.25 0.453125q-0.546875 0.4375 -0.84375 1.578125q-0.390625 1.5 -0.390625 5.015625q0 3.53125 0.34375 4.859375q0.359375 1.3125 0.890625 1.75q0.546875 0.4375 1.25 0.4375q0.6875 0 1.234375 -0.4375q0.546875 -0.453125 0.859375 -1.59375q0.390625 -1.484375 0.390625 -5.015625q0 -3.515625 -0.359375 -4.828125q-0.34375 -1.328125 -0.890625 -1.765625q-0.546875 -0.453125 -1.234375 -0.453125zm22.05664 13.375l0 3.5625l-13.46875 0q0.21875 -2.03125 1.3125 -3.828125q1.09375 -1.8125 4.3125 -4.8125q2.59375 -2.421875 3.1875 -3.28125q0.796875 -1.1875 0.796875 -2.359375q0 -1.28125 -0.703125 -1.96875q-0.6875 -0.6875 -1.890625 -0.6875q-1.203125 0 -1.921875 0.734375q-0.703125 0.71875 -0.8125 2.390625l-3.828125 -0.375q0.328125 -3.171875 2.125 -4.546875q1.8125 -1.390625 4.53125 -1.390625q2.96875 0 4.65625 1.609375q1.703125 1.59375 1.703125 3.96875q0 1.359375 -0.5 2.578125q-0.484375 1.21875 -1.53125 2.5625q-0.703125 0.890625 -2.515625 2.5625q-1.8125 1.65625 -2.296875 2.203125q-0.484375 0.546875 -0.796875 1.078125l7.640625 0zm15.572266 0l0 3.5625l-13.46875 0q0.21875 -2.03125 1.3125 -3.828125q1.09375 -1.8125 4.3125 -4.8125q2.59375 -2.421875 3.1875 -3.28125q0.796875 -1.1875 0.796875 -2.359375q0 -1.28125 -0.703125 -1.96875q-0.6875 -0.6875 -1.890625 -0.6875q-1.203125 0 -1.921875 0.734375q-0.703125 0.71875 -0.8125 2.390625l-3.828125 -0.375q0.328125 -3.171875 2.125 -4.546875q1.8125 -1.390625 4.53125 -1.390625q2.96875 0 4.65625 1.609375q1.703125 1.59375 1.703125 3.96875q0 1.359375 -0.5 2.578125q-0.484375 1.21875 -1.53125 2.5625q-0.703125 0.890625 -2.515625 2.5625q-1.8125 1.65625 -2.296875 2.203125q-0.484375 0.546875 -0.796875 1.078125l7.640625 0zm2.9785156 -1.78125l0 -3.84375l7.546875 0l0 3.84375l-7.546875 0zm8.933594 -10.859375l0 -3.5625l13.140625 0l0 2.78125q-1.625 1.609375 -3.3125 4.609375q-1.671875 2.984375 -2.5625 6.359375q-0.875 3.359375 -0.859375 6.015625l-3.703125 0q0.09375 -4.15625 1.703125 -8.46875q1.625 -4.328125 4.328125 -7.734375l-8.734375 0z" fill-rule="nonzero"/><path fill="#000000" d="m96.47972 175.55978l0 -20.046875l14.875 0l0 3.390625l-10.828125 0l0 4.453125l10.0625 0l0 3.375l-10.0625 0l0 5.453125l11.203125 0l0 3.375l-15.25 0zm28.144531 5.53125l0 -7.3125q-0.75 0.96875 -1.875 1.546875q-1.125 0.5625 -2.421875 0.5625q-2.46875 0 -4.078125 -1.859375q-1.875 -2.171875 -1.875 -5.890625q0 -3.5 1.765625 -5.453125q1.765625 -1.96875 4.390625 -1.96875q1.453125 0 2.515625 0.609375q1.0625 0.609375 1.875 1.859375l0 -2.140625l3.546875 0l0 20.046875l-3.84375 0zm0.125 -12.96875q0 -2.234375 -0.921875 -3.3125q-0.90625 -1.09375 -2.265625 -1.09375q-1.390625 0 -2.328125 1.109375q-0.9375 1.109375 -0.9375 3.515625q0 2.390625 0.890625 3.453125q0.90625 1.0625 2.234375 1.0625q1.328125 0 2.328125 -1.1875q1.0 -1.203125 1.0 -3.546875zm17.041016 7.4375l0 -2.171875q-0.78125 1.15625 -2.078125 1.828125q-1.296875 0.671875 -2.734375 0.671875q-1.453125 0 -2.625 -0.640625q-1.15625 -0.640625 -1.6875 -1.796875q-0.515625 -1.171875 -0.515625 -3.21875l0 -9.1875l3.84375 0l0 6.671875q0 3.0625 0.203125 3.75q0.21875 0.6875 0.78125 1.09375q0.5625 0.40625 1.421875 0.40625q0.984375 0 1.765625 -0.53125q0.78125 -0.546875 1.0625 -1.34375q0.296875 -0.8125 0.296875 -3.921875l0 -6.125l3.84375 0l0 14.515625l-3.578125 0zm7.5566406 -16.484375l0 -3.5625l3.84375 0l0 3.5625l-3.84375 0zm0 16.484375l0 -14.515625l3.84375 0l0 14.515625l-3.84375 0zm7.669922 -14.515625l3.578125 0l0 2.125q0.703125 -1.09375 1.890625 -1.765625q1.1875 -0.6875 2.640625 -0.6875q2.515625 0 4.28125 1.984375q1.765625 1.96875 1.765625 5.515625q0 3.640625 -1.78125 5.65625q-1.765625 2.015625 -4.296875 2.015625q-1.203125 0 -2.1875 -0.46875q-0.96875 -0.484375 -2.046875 -1.65625l0 7.328125l-3.84375 0l0 -20.046875zm3.796875 7.015625q0 2.4375 0.96875 3.609375q0.96875 1.171875 2.359375 1.171875q1.34375 0 2.234375 -1.078125q0.890625 -1.078125 0.890625 -3.515625q0 -2.28125 -0.921875 -3.390625q-0.90625 -1.109375 -2.265625 -1.109375q-1.40625 0 -2.34375 1.09375q-0.921875 1.078125 -0.921875 3.21875zm13.119141 -7.015625l3.546875 0l0 1.984375q1.90625 -2.3125 4.53125 -2.3125q1.390625 0 2.40625 0.578125q1.03125 0.5625 1.6875 1.734375q0.953125 -1.171875 2.0625 -1.734375q1.109375 -0.578125 2.375 -0.578125q1.59375 0 2.703125 0.65625q1.109375 0.640625 1.65625 1.890625q0.390625 0.9375 0.390625 3.015625l0 9.28125l-3.84375 0l0 -8.296875q0 -2.15625 -0.390625 -2.796875q-0.53125 -0.8125 -1.640625 -0.8125q-0.8125 0 -1.53125 0.5q-0.703125 0.484375 -1.015625 1.4375q-0.3125 0.9375 -0.3125 3.0l0 6.96875l-3.84375 0l0 -7.953125q0 -2.125 -0.203125 -2.734375q-0.203125 -0.625 -0.640625 -0.921875q-0.421875 -0.296875 -1.171875 -0.296875q-0.875 0 -1.59375 0.484375q-0.703125 0.46875 -1.015625 1.375q-0.3125 0.90625 -0.3125 2.984375l0 7.0625l-3.84375 0l0 -14.515625zm33.59961 9.890625l3.828125 0.640625q-0.734375 2.109375 -2.328125 3.21875q-1.59375 1.09375 -3.984375 1.09375q-3.796875 0 -5.609375 -2.46875q-1.4375 -1.984375 -1.4375 -5.015625q0 -3.609375 1.875 -5.640625q1.890625 -2.046875 4.78125 -2.046875q3.234375 0 5.109375 2.140625q1.875 2.140625 1.796875 6.546875l-9.625 0q0.046875 1.71875 0.921875 2.671875q0.890625 0.9375 2.21875 0.9375q0.90625 0 1.515625 -0.484375q0.625 -0.5 0.9375 -1.59375zm0.21875 -3.875q-0.046875 -1.671875 -0.875 -2.53125q-0.8125 -0.875 -1.984375 -0.875q-1.265625 0 -2.078125 0.90625q-0.828125 0.921875 -0.8125 2.5l5.75 0zm20.15039 8.5l-3.84375 0l0 -7.40625q0 -2.359375 -0.25 -3.046875q-0.234375 -0.6875 -0.796875 -1.0625q-0.546875 -0.390625 -1.328125 -0.390625q-1.0 0 -1.796875 0.546875q-0.796875 0.546875 -1.09375 1.453125q-0.28125 0.890625 -0.28125 3.328125l0 6.578125l-3.84375 0l0 -14.515625l3.5625 0l0 2.125q1.90625 -2.453125 4.796875 -2.453125q1.265625 0 2.3125 0.453125q1.0625 0.453125 1.59375 1.171875q0.546875 0.703125 0.75 1.609375q0.21875 0.90625 0.21875 2.578125l0 9.03125zm10.556641 -14.515625l0 3.0625l-2.625 0l0 5.84375q0 1.78125 0.0625 2.078125q0.078125 0.296875 0.34375 0.484375q0.28125 0.1875 0.65625 0.1875q0.53125 0 1.546875 -0.375l0.328125 2.984375q-1.34375 0.578125 -3.03125 0.578125q-1.046875 0 -1.890625 -0.34375q-0.828125 -0.359375 -1.21875 -0.90625q-0.375 -0.5625 -0.53125 -1.5q-0.125 -0.671875 -0.125 -2.703125l0 -6.328125l-1.765625 0l0 -3.0625l1.765625 0l0 -2.890625l3.859375 -2.234375l0 5.125l2.625 0z" fill-rule="nonzero"/></g></svg>