<?xml version="1.0" ?><!DOCTYPE svg  PUBLIC '-//W3C//DTD SVG 1.1//EN'  'http://www.w3.org/Graphics/SVG/1.1/DTD/svg11.dtd'><svg enable-background="new 0 0 32 32"  id="Слой_1" version="1.1" viewBox="0 0 32 32"  xml:space="preserve" xmlns="http://www.w3.org/2000/svg" xmlns:xlink="http://www.w3.org/1999/xlink"><g id="Arrow_Drop_Right_Circle"><path clip-rule="evenodd" d="M0,16c0,8.836,7.164,16,16,16c8.837,0,16-7.164,16-16   c0-8.837-7.163-16-16-16C7.164,0,0,7.163,0,16z M30.031,16c0,7.72-6.312,14-14.031,14C8.28,30,2,23.72,2,16C2,8.28,8.28,2,16,2   C23.72,2,30.031,8.28,30.031,16z" fill="white" fill-rule="evenodd"/><path clip-rule="evenodd" d="M13.08,8.626c-0.056,0.134-0.079,0.276-0.075,0.419v13.942   c-0.024,0.887,1.07,1.38,1.702,0.742l6.899-6.999c0.382-0.386,0.382-1.043,0-1.429L14.715,8.31   C14.221,7.793,13.346,7.966,13.08,8.626C13.025,8.76,13.228,8.259,13.08,8.626C13.025,8.76,13.228,8.259,13.08,8.626   C13.025,8.76,13.228,8.259,13.08,8.626z M19.488,16.016l-4.494,4.559v-9.118L19.488,16.016z" fill="white" fill-rule="evenodd"/></g><g/><g/><g/><g/><g/><g/></svg>