<svg width="16" height="16" viewBox="0 0 16 16" fill="none" xmlns="http://www.w3.org/2000/svg">
<g clip-path="url(#clip0)">
<path d="M6 7.99869C6 8.52912 6.21071 9.03783 6.58579 9.4129C6.96086 9.78797 7.46957 9.99869 8 9.99869C8.53043 9.99869 9.03914 9.78797 9.41421 9.4129C9.78929 9.03783 10 8.52912 10 7.99869C10 7.46825 9.78929 6.95955 9.41421 6.58447C9.03914 6.2094 8.53043 5.99869 8 5.99869C7.46957 5.99869 6.96086 6.2094 6.58579 6.58447C6.21071 6.95955 6 7.46825 6 7.99869Z" fill="white"/>
<path d="M3.3333 5.20934C3.25597 5.13195 3.16415 5.07057 3.06309 5.02868C2.96203 4.9868 2.8537 4.96524 2.7443 4.96524C2.6349 4.96524 2.52657 4.9868 2.42551 5.02868C2.32445 5.07057 2.23263 5.13195 2.1553 5.20934L0.446634 6.91934C0.161859 7.20652 0.0020752 7.59457 0.0020752 7.99901C0.0020752 8.40344 0.161859 8.7915 0.446634 9.07867L2.15797 10.7887C2.23383 10.8724 2.32593 10.9398 2.42867 10.9868C2.5314 11.0339 2.64263 11.0595 2.75558 11.0622C2.86854 11.0649 2.98086 11.0446 3.08572 11.0026C3.19059 10.9605 3.28581 10.8975 3.36559 10.8175C3.44537 10.7375 3.50804 10.6421 3.54981 10.5372C3.59157 10.4322 3.61155 10.3198 3.60853 10.2068C3.60551 10.0939 3.57956 9.98275 3.53224 9.88014C3.48493 9.77754 3.41724 9.68563 3.3333 9.61L1.96063 8.23467C1.89814 8.17216 1.86304 8.08739 1.86304 7.99901C1.86304 7.91062 1.89814 7.82585 1.96063 7.76334L3.3333 6.38734C3.41076 6.31006 3.47222 6.21825 3.51416 6.11718C3.55609 6.01611 3.57768 5.90776 3.57768 5.79834C3.57768 5.68892 3.55609 5.58057 3.51416 5.4795C3.47222 5.37843 3.41076 5.28662 3.3333 5.20934Z" fill="white"/>
<path d="M9.07933 0.445348C8.7927 0.159806 8.40459 -0.000518799 8 -0.000518799C7.59541 -0.000518799 7.2073 0.159806 6.92067 0.445348L5.21 2.15668C5.06359 2.31488 4.98418 2.52366 4.98844 2.73917C4.99271 2.95469 5.08031 3.16016 5.23286 3.31245C5.38541 3.46474 5.59103 3.552 5.80655 3.55589C6.02207 3.55979 6.23071 3.48002 6.38867 3.33335L7.764 1.95735C7.79496 1.92631 7.83175 1.90168 7.87225 1.88487C7.91274 1.86807 7.95616 1.85942 8 1.85942C8.04385 1.85942 8.08726 1.86807 8.12776 1.88487C8.16825 1.90168 8.20504 1.92631 8.236 1.95735L9.61133 3.33335C9.76763 3.48965 9.97962 3.57746 10.2007 3.57746C10.4217 3.57746 10.6337 3.48965 10.79 3.33335C10.9463 3.17705 11.0341 2.96506 11.0341 2.74401C11.0341 2.52297 10.9463 2.31098 10.79 2.15468L9.07933 0.445348Z" fill="white"/>
<path d="M15.5533 6.91934L13.8419 5.20934C13.6838 5.06342 13.4752 4.9844 13.2601 4.98886C13.0449 4.99331 12.8399 5.08089 12.6879 5.23323C12.5359 5.38557 12.4487 5.59084 12.4448 5.806C12.4408 6.02116 12.5203 6.2295 12.6666 6.38734L14.0419 7.76334C14.1044 7.82585 14.1395 7.91062 14.1395 7.99901C14.1395 8.0874 14.1044 8.17217 14.0419 8.23468L12.6666 9.61001C12.5147 9.76713 12.4307 9.97761 12.4325 10.1961C12.4344 10.4146 12.5219 10.6236 12.6764 10.7782C12.8309 10.9327 13.0399 11.0204 13.2584 11.0224C13.4769 11.0244 13.6874 10.9404 13.8446 10.7887L15.5559 9.07868C15.8403 8.79115 15.9996 8.40289 15.9991 7.99846C15.9986 7.59403 15.8384 7.20617 15.5533 6.91934Z" fill="white"/>
<path d="M9.61126 12.6627L8.23593 14.0387C8.20497 14.0697 8.16818 14.0944 8.12769 14.1112C8.08719 14.128 8.04378 14.1366 7.99993 14.1366C7.95609 14.1366 7.91267 14.128 7.87217 14.1112C7.83168 14.0944 7.79489 14.0697 7.76393 14.0387L6.3886 12.6627C6.2323 12.5064 6.02031 12.4186 5.79926 12.4186C5.57822 12.4186 5.36623 12.5064 5.20993 12.6627C5.05363 12.819 4.96582 13.031 4.96582 13.252C4.96582 13.4731 5.05363 13.6851 5.20993 13.8414L6.9206 15.5527C7.20723 15.8382 7.59534 15.9986 7.99993 15.9986C8.40452 15.9986 8.79263 15.8382 9.07926 15.5527L10.7899 13.8414C10.9462 13.6851 11.034 13.4731 11.034 13.252C11.034 13.031 10.9462 12.819 10.7899 12.6627C10.6336 12.5064 10.4216 12.4186 10.2006 12.4186C9.97955 12.4186 9.76756 12.5064 9.61126 12.6627Z" fill="white"/>
</g>
<defs>
<clipPath id="clip0">
<rect width="16" height="16" fill="white"/>
</clipPath>
</defs>
</svg>
