<svg version="1.1" viewBox="0.0 0.0 360.254593175853 286.29396325459317" fill="none" stroke="none" stroke-linecap="square" stroke-miterlimit="10" xmlns:xlink="http://www.w3.org/1999/xlink" xmlns="http://www.w3.org/2000/svg"><clipPath id="p.0"><path d="m0 0l360.2546 0l0 286.29398l-360.2546 0l0 -286.29398z" clip-rule="nonzero"/></clipPath><g clip-path="url(#p.0)"><path fill="#000000" fill-opacity="0.0" d="m0 0l360.2546 0l0 286.29398l-360.2546 0z" fill-rule="evenodd"/><path fill="#a4c2f4" d="m88.74803 54.431065l0 0c0 -17.076233 13.843018 -30.919254 30.91925 -30.919254l123.67331 0l0 0c8.200287 0 16.064713 3.257555 21.863205 9.056042c5.7984924 5.798485 9.056061 13.662918 9.056061 21.863213l0 164.42921c0 17.076233 -13.843048 30.91925 -30.919266 30.91925l-123.67331 0c-17.076233 0 -30.91925 -13.843018 -30.91925 -30.91925z" fill-rule="evenodd"/><path fill="#000000" d="m111.588005 114.24567l0 -19.078125l6.1875 0q3.515625 0 4.578125 0.28125q1.640625 0.4375 2.75 1.875q1.109375 1.4375 1.109375 3.703125q0 1.765625 -0.640625 2.96875q-0.640625 1.1875 -1.625 1.875q-0.984375 0.6875 -2.0 0.90625q-1.375 0.265625 -4.0 0.265625l-2.5 0l0 7.203125l-3.859375 0zm3.859375 -15.859375l0 5.421875l2.109375 0q2.265625 0 3.03125 -0.296875q0.78125 -0.296875 1.21875 -0.9375q0.4375 -0.640625 0.4375 -1.484375q0 -1.046875 -0.625 -1.71875q-0.609375 -0.671875 -1.546875 -0.84375q-0.6875 -0.140625 -2.765625 -0.140625l-1.859375 0zm17.404518 15.859375l-3.671875 0l0 -13.828125l3.40625 0l0 1.96875q0.875 -1.390625 1.5625 -1.828125q0.703125 -0.453125 1.578125 -0.453125q1.25 0 2.421875 0.703125l-1.140625 3.1875q-0.921875 -0.609375 -1.71875 -0.609375q-0.765625 0 -1.296875 0.421875q-0.53125 0.421875 -0.84375 1.53125q-0.296875 1.109375 -0.296875 4.640625l0 4.265625zm6.0141754 -7.109375q0 -1.8125 0.890625 -3.515625q0.90625 -1.71875 2.546875 -2.609375q1.65625 -0.90625 3.6875 -0.90625q3.140625 0 5.140625 2.046875q2.0 2.03125 2.0 5.140625q0 3.140625 -2.03125 5.203125q-2.015625 2.0625 -5.078125 2.0625q-1.90625 0 -3.640625 -0.859375q-1.71875 -0.859375 -2.625 -2.515625q-0.890625 -1.65625 -0.890625 -4.046875zm3.75 0.203125q0 2.046875 0.96875 3.140625q0.984375 1.09375 2.421875 1.09375q1.421875 0 2.390625 -1.09375q0.984375 -1.09375 0.984375 -3.171875q0 -2.03125 -0.984375 -3.125q-0.96875 -1.09375 -2.390625 -1.09375q-1.4375 0 -2.421875 1.09375q-0.96875 1.09375 -0.96875 3.15625zm25.43895 -2.828125l-3.609375 0.65625q-0.1875 -1.09375 -0.828125 -1.640625q-0.640625 -0.546875 -1.671875 -0.546875q-1.359375 0 -2.171875 0.953125q-0.8125 0.9375 -0.8125 3.15625q0 2.453125 0.8125 3.46875q0.828125 1.015625 2.21875 1.015625q1.046875 0 1.703125 -0.59375q0.671875 -0.59375 0.953125 -2.03125l3.578125 0.609375q-0.546875 2.46875 -2.140625 3.734375q-1.59375 1.265625 -4.25 1.265625q-3.03125 0 -4.84375 -1.90625q-1.796875 -1.921875 -1.796875 -5.296875q0 -3.4375 1.796875 -5.34375q1.8125 -1.90625 4.90625 -1.90625q2.515625 0 4.0 1.09375q1.5 1.078125 2.15625 3.3125zm10.778061 5.328125l3.640625 0.625q-0.703125 2.0 -2.21875 3.046875q-1.515625 1.046875 -3.796875 1.046875q-3.609375 0 -5.328125 -2.359375q-1.375 -1.890625 -1.375 -4.765625q0 -3.4375 1.796875 -5.375q1.796875 -1.953125 4.546875 -1.953125q3.078125 0 4.859375 2.046875q1.78125 2.03125 1.703125 6.234375l-9.15625 0q0.046875 1.625 0.890625 2.53125q0.84375 0.90625 2.109375 0.90625q0.859375 0 1.4375 -0.46875q0.59375 -0.46875 0.890625 -1.515625zm0.203125 -3.6875q-0.03125 -1.59375 -0.8125 -2.421875q-0.78125 -0.828125 -1.90625 -0.828125q-1.203125 0 -1.984375 0.875q-0.78125 0.875 -0.765625 2.375l5.46875 0zm5.324936 4.15625l3.671875 -0.5625q0.234375 1.0625 0.953125 1.625q0.71875 0.546875 2.0 0.546875q1.421875 0 2.140625 -0.515625q0.46875 -0.375 0.46875 -0.984375q0 -0.421875 -0.25 -0.6875q-0.28125 -0.265625 -1.234375 -0.484375q-4.421875 -0.96875 -5.609375 -1.78125q-1.640625 -1.125 -1.640625 -3.109375q0 -1.796875 1.421875 -3.015625q1.421875 -1.234375 4.40625 -1.234375q2.828125 0 4.203125 0.9375q1.390625 0.921875 1.90625 2.71875l-3.4375 0.640625q-0.234375 -0.796875 -0.859375 -1.21875q-0.609375 -0.4375 -1.75 -0.4375q-1.4375 0 -2.0625 0.390625q-0.421875 0.296875 -0.421875 0.75q0 0.390625 0.359375 0.65625q0.5 0.375 3.421875 1.046875q2.921875 0.65625 4.078125 1.609375q1.140625 0.984375 1.140625 2.71875q0 1.90625 -1.59375 3.28125q-1.578125 1.359375 -4.6875 1.359375q-2.828125 0 -4.484375 -1.140625q-1.640625 -1.15625 -2.140625 -3.109375zm14.824936 0l3.671875 -0.5625q0.234375 1.0625 0.953125 1.625q0.71875 0.546875 2.0 0.546875q1.421875 0 2.140625 -0.515625q0.46875 -0.375 0.46875 -0.984375q0 -0.421875 -0.25 -0.6875q-0.28125 -0.265625 -1.234375 -0.484375q-4.421875 -0.96875 -5.609375 -1.78125q-1.640625 -1.125 -1.640625 -3.109375q0 -1.796875 1.421875 -3.015625q1.421875 -1.234375 4.40625 -1.234375q2.828125 0 4.203125 0.9375q1.390625 0.921875 1.90625 2.71875l-3.4375 0.640625q-0.234375 -0.796875 -0.859375 -1.21875q-0.609375 -0.4375 -1.75 -0.4375q-1.4375 0 -2.0625 0.390625q-0.421875 0.296875 -0.421875 0.75q0 0.390625 0.359375 0.65625q0.5 0.375 3.421875 1.046875q2.921875 0.65625 4.078125 1.609375q1.140625 0.984375 1.140625 2.71875q0 1.90625 -1.59375 3.28125q-1.578125 1.359375 -4.6875 1.359375q-2.828125 0 -4.484375 -1.140625q-1.640625 -1.15625 -2.140625 -3.109375zm16.106186 -11.765625l0 -3.375l3.671875 0l0 3.375l-3.671875 0zm0 15.703125l0 -13.828125l3.671875 0l0 13.828125l-3.671875 0zm19.984085 0l-3.65625 0l0 -7.046875q0 -2.25 -0.234375 -2.90625q-0.234375 -0.65625 -0.765625 -1.015625q-0.515625 -0.375 -1.265625 -0.375q-0.953125 0 -1.703125 0.53125q-0.75 0.515625 -1.03125 1.375q-0.28125 0.859375 -0.28125 3.171875l0 6.265625l-3.65625 0l0 -13.828125l3.390625 0l0 2.03125q1.8125 -2.34375 4.5625 -2.34375q1.203125 0 2.203125 0.4375q1.015625 0.4375 1.515625 1.125q0.515625 0.671875 0.71875 1.53125q0.203125 0.859375 0.203125 2.453125l0 8.59375zm3.3764343 0.90625l4.171875 0.515625q0.109375 0.71875 0.484375 1.0q0.515625 0.390625 1.640625 0.390625q1.4375 0 2.140625 -0.4375q0.484375 -0.28125 0.734375 -0.921875q0.171875 -0.453125 0.171875 -1.671875l0 -2.015625q-1.640625 2.234375 -4.140625 2.234375q-2.78125 0 -4.40625 -2.359375q-1.28125 -1.859375 -1.28125 -4.625q0 -3.484375 1.671875 -5.3125q1.671875 -1.84375 4.15625 -1.84375q2.5625 0 4.234375 2.25l0 -1.9375l3.421875 0l0 12.40625q0 2.453125 -0.40625 3.65625q-0.40625 1.21875 -1.140625 1.90625q-0.71875 0.6875 -1.9375 1.078125q-1.21875 0.390625 -3.078125 0.390625q-3.515625 0 -4.984375 -1.203125q-1.46875 -1.203125 -1.46875 -3.046875q0 -0.1875 0.015625 -0.453125zm3.265625 -8.109375q0 2.203125 0.84375 3.234375q0.859375 1.015625 2.109375 1.015625q1.34375 0 2.265625 -1.046875q0.921875 -1.046875 0.921875 -3.109375q0 -2.140625 -0.890625 -3.1875q-0.875 -1.046875 -2.234375 -1.046875q-1.3125 0 -2.171875 1.03125q-0.84375 1.015625 -0.84375 3.109375z" fill-rule="nonzero"/><path fill="#000000" d="m157.50235 159.16754l3.859375 0l0 10.328125q0 2.46875 0.140625 3.1875q0.25 1.171875 1.171875 1.890625q0.9375 0.703125 2.546875 0.703125q1.640625 0 2.46875 -0.671875q0.84375 -0.671875 1.015625 -1.640625q0.171875 -0.984375 0.171875 -3.25l0 -10.546875l3.84375 0l0 10.015625q0 3.4375 -0.3125 4.859375q-0.3125 1.421875 -1.15625 2.40625q-0.828125 0.96875 -2.234375 1.546875q-1.40625 0.578125 -3.671875 0.578125q-2.734375 0 -4.15625 -0.625q-1.40625 -0.640625 -2.234375 -1.640625q-0.8125 -1.015625 -1.0625 -2.125q-0.390625 -1.640625 -0.390625 -4.84375l0 -10.171875zm31.828415 19.078125l-3.65625 0l0 -7.046875q0 -2.25 -0.234375 -2.90625q-0.234375 -0.65625 -0.765625 -1.015625q-0.515625 -0.375 -1.265625 -0.375q-0.953125 0 -1.703125 0.53125q-0.75 0.515625 -1.03125 1.375q-0.28125 0.859375 -0.28125 3.171875l0 6.265625l-3.65625 0l0 -13.828125l3.390625 0l0 2.03125q1.8125 -2.34375 4.5625 -2.34375q1.203125 0 2.203125 0.4375q1.015625 0.4375 1.515625 1.125q0.515625 0.671875 0.71875 1.53125q0.203125 0.859375 0.203125 2.453125l0 8.59375zm3.7045746 -15.703125l0 -3.375l3.671875 0l0 3.375l-3.671875 0zm0 15.703125l0 -13.828125l3.671875 0l0 13.828125l-3.671875 0zm13.74971 -13.828125l0 2.921875l-2.5 0l0 5.5625q0 1.703125 0.0625 1.984375q0.078125 0.28125 0.328125 0.46875q0.265625 0.171875 0.625 0.171875q0.515625 0 1.46875 -0.359375l0.3125 2.84375q-1.265625 0.546875 -2.890625 0.546875q-0.984375 0 -1.78125 -0.328125q-0.796875 -0.328125 -1.171875 -0.859375q-0.359375 -0.53125 -0.5 -1.421875q-0.125 -0.640625 -0.125 -2.578125l0 -6.03125l-1.671875 0l0 -2.921875l1.671875 0l0 -2.734375l3.671875 -2.140625l0 4.875l2.5 0z" fill-rule="nonzero"/><path fill="#000000" fill-opacity="0.0" d="m10.92126 136.64568l77.826775 0" fill-rule="evenodd"/><path stroke="#ff0000" stroke-width="8.0" stroke-linejoin="round" stroke-linecap="butt" d="m10.92126 136.64568l29.826775 0" fill-rule="evenodd"/><path fill="#ff0000" stroke="#ff0000" stroke-width="8.0" stroke-linecap="butt" d="m40.74803 149.85953l36.30478 -13.213852l-36.30478 -13.213867z" fill-rule="evenodd"/><path fill="#000000" fill-opacity="0.0" d="m274.9134 138.61154l77.82675 0" fill-rule="evenodd"/><path stroke="#0000ff" stroke-width="8.0" stroke-linejoin="round" stroke-linecap="butt" d="m274.9134 138.61154l29.826752 0" fill-rule="evenodd"/><path fill="#0000ff" stroke="#0000ff" stroke-width="8.0" stroke-linecap="butt" d="m304.74017 151.82541l36.30478 -13.213867l-36.30478 -13.213852z" fill-rule="evenodd"/></g></svg>