<svg width="16" height="16" viewBox="0 0 16 16" fill="#40A2FF" xmlns="http://www.w3.org/2000/svg">
<path d="M10.3039 7.42399L6.35592 5.41199C6.25297 5.35582 6.13743 5.32674 6.02016 5.32747C5.90288 5.3282 5.78772 5.35872 5.68548 5.41618C5.58323 5.47363 5.49727 5.55612 5.43566 5.65591C5.37405 5.7557 5.33881 5.86951 5.33325 5.98666V10.0127C5.33923 10.1296 5.37472 10.2432 5.43641 10.3428C5.4981 10.4423 5.58399 10.5247 5.68607 10.5821C5.78815 10.6395 5.90311 10.6702 6.02023 10.6712C6.13736 10.6722 6.25284 10.6436 6.35592 10.588L10.3039 8.57533C10.4124 8.52322 10.5039 8.44154 10.5679 8.33969C10.632 8.23785 10.666 8.11998 10.666 7.99966C10.666 7.87934 10.632 7.76147 10.5679 7.65963C10.5039 7.55778 10.4124 7.4761 10.3039 7.42399Z" fill="#40A2FF"/>
<path d="M15.5753 3.54932C15.5263 3.26711 15.3885 3.00793 15.1818 2.80957C14.9752 2.61122 14.7106 2.48406 14.4266 2.44665C12.297 2.15176 10.1499 2.00053 7.99996 1.99399C5.85001 2.00053 3.70293 2.15176 1.57329 2.44665C1.28932 2.48406 1.02472 2.61122 0.818092 2.80957C0.611462 3.00793 0.473605 3.26711 0.424627 3.54932C-0.141379 6.48922 -0.141379 9.51009 0.424627 12.45C0.473575 12.7323 0.611406 12.9916 0.818029 13.19C1.02465 13.3885 1.28926 13.5158 1.57329 13.5533C3.7029 13.8484 5.85001 13.9994 7.99996 14.0053C10.1499 13.9994 12.297 13.8484 14.4266 13.5533C14.7107 13.5158 14.9753 13.3885 15.1819 13.19C15.3885 12.9916 15.5263 12.7323 15.5753 12.45C16.1413 9.51009 16.1413 6.48922 15.5753 3.54932ZM14.3053 11.9747C14.2933 12.0447 14.2591 12.1091 14.2079 12.1584C14.1567 12.2077 14.0911 12.2393 14.0206 12.2487C12.0252 12.5207 10.0139 12.6604 7.99996 12.6667C5.98599 12.6595 3.9747 12.519 1.97929 12.246C1.90883 12.2366 1.8432 12.205 1.79199 12.1557C1.74078 12.1064 1.70666 12.042 1.69463 11.972C1.21348 9.33918 1.21777 6.64059 1.70729 4.00932C1.71949 3.93929 1.75376 3.87499 1.80509 3.82582C1.85643 3.77665 1.92214 3.74517 1.99263 3.73599C3.98408 3.47024 5.99085 3.33573 7.99996 3.33332C10.0091 3.33684 12.0159 3.47246 14.0073 3.73932C14.0778 3.7485 14.1435 3.77998 14.1948 3.82915C14.2462 3.87833 14.2804 3.94262 14.2926 4.01265C14.7821 6.6437 14.7864 9.34206 14.3053 11.9747Z" fill="#40A2FF"/>
</svg>
