<?xml version="1.0" encoding="UTF-8" standalone="no"?>
<!-- Created with Inkscape (http://www.inkscape.org/) -->

<svg
   xmlns:dc="http://purl.org/dc/elements/1.1/"
   xmlns:cc="http://creativecommons.org/ns#"
   xmlns:rdf="http://www.w3.org/1999/02/22-rdf-syntax-ns#"
   xmlns:svg="http://www.w3.org/2000/svg"
   xmlns="http://www.w3.org/2000/svg"
   xmlns:sodipodi="http://sodipodi.sourceforge.net/DTD/sodipodi-0.dtd"
   xmlns:inkscape="http://www.inkscape.org/namespaces/inkscape"
   id="svg2985"
   version="1.1"
   inkscape:version="0.48.2 r9819"
   width="300"
   height="120.65458"
   xml:space="preserve"
   sodipodi:docname="EBU_Annual_Report_2011-2012.pdf"><metadata
     id="metadata2991"><rdf:RDF><cc:Work
         rdf:about=""><dc:format>image/svg+xml</dc:format><dc:type
           rdf:resource="http://purl.org/dc/dcmitype/StillImage" /><dc:title></dc:title></cc:Work></rdf:RDF></metadata><defs
     id="defs2989"><linearGradient
       x1="0"
       y1="0"
       x2="1"
       y2="0"
       gradientUnits="userSpaceOnUse"
       gradientTransform="matrix(292.65851,0,0,-292.65851,779.52754,1.8933105)"
       spreadMethod="pad"
       id="linearGradient3009"><stop
         style="stop-opacity:1;stop-color:#003888"
         offset="0"
         id="stop3011" /><stop
         style="stop-opacity:1;stop-color:#e30043"
         offset="0.868134"
         id="stop3013" /><stop
         style="stop-opacity:1;stop-color:#e30043"
         offset="0.868134"
         id="stop3015" /><stop
         style="stop-opacity:1;stop-color:#e30043"
         offset="1"
         id="stop3017" /></linearGradient><clipPath
       clipPathUnits="userSpaceOnUse"
       id="clipPath3029"><path
         d="m 0,0 1204.724,0 0,841.89 L 0,841.89 0,0 z"
         id="path3031"
         inkscape:connector-curvature="0" /></clipPath><clipPath
       clipPathUnits="userSpaceOnUse"
       id="clipPath3251"><path
         d="m 0,0 1204.724,0 0,841.89 L 0,841.89 0,0 z"
         id="path3253"
         inkscape:connector-curvature="0" /></clipPath><clipPath
       clipPathUnits="userSpaceOnUse"
       id="clipPath3259"><path
         d="m 1033.65,851.394 44.52,0 0,-860.89794 -44.52,0 0,860.89794 z"
         id="path3261"
         inkscape:connector-curvature="0" /></clipPath><linearGradient
       x1="0"
       y1="0"
       x2="1"
       y2="0"
       gradientUnits="userSpaceOnUse"
       gradientTransform="matrix(-42.519684,0,0,-42.519684,1077.1653,-8.5039368)"
       spreadMethod="pad"
       id="linearGradient3267"><stop
         style="stop-opacity:1;stop-color:#ffffff"
         offset="0"
         id="stop3269" /><stop
         style="stop-opacity:1;stop-color:#a0a5a9"
         offset="0.995544"
         id="stop3271" /><stop
         style="stop-opacity:1;stop-color:#a0a5a9"
         offset="0.995544"
         id="stop3273" /><stop
         style="stop-opacity:1;stop-color:#a0a5a9"
         offset="1"
         id="stop3275" /></linearGradient><clipPath
       clipPathUnits="userSpaceOnUse"
       id="clipPath3295"><path
         d="m 1118.69,853.626 47.03,0 0,-863.12994 -47.03,0 0,863.12994 z"
         id="path3297"
         inkscape:connector-curvature="0" /></clipPath><linearGradient
       x1="0"
       y1="0"
       x2="1"
       y2="0"
       gradientUnits="userSpaceOnUse"
       gradientTransform="matrix(-42.519684,0,0,-42.519684,1162.2048,-8.5039368)"
       spreadMethod="pad"
       id="linearGradient3303"><stop
         style="stop-opacity:1;stop-color:#ffffff"
         offset="0"
         id="stop3305" /><stop
         style="stop-opacity:1;stop-color:#a0a5a9"
         offset="0.995544"
         id="stop3307" /><stop
         style="stop-opacity:1;stop-color:#a0a5a9"
         offset="0.995544"
         id="stop3309" /><stop
         style="stop-opacity:1;stop-color:#a0a5a9"
         offset="1"
         id="stop3311" /></linearGradient><clipPath
       clipPathUnits="userSpaceOnUse"
       id="clipPath3383"><path
         d="m 0,0 1204.724,0 0,841.89 L 0,841.89 0,0 z"
         id="path3385"
         inkscape:connector-curvature="0" /></clipPath><clipPath
       clipPathUnits="userSpaceOnUse"
       id="clipPath3391"><path
         d="m 948.606,853.626 47.04,0 0,-863.12994 -47.04,0 0,863.12994 z"
         id="path3393"
         inkscape:connector-curvature="0" /></clipPath><linearGradient
       x1="0"
       y1="0"
       x2="1"
       y2="0"
       gradientUnits="userSpaceOnUse"
       gradientTransform="matrix(-42.519684,0,0,-42.519684,992.12592,-8.5039368)"
       spreadMethod="pad"
       id="linearGradient3399"><stop
         style="stop-opacity:1;stop-color:#ffffff"
         offset="0"
         id="stop3401" /><stop
         style="stop-opacity:1;stop-color:#a0a5a9"
         offset="0.995544"
         id="stop3403" /><stop
         style="stop-opacity:1;stop-color:#a0a5a9"
         offset="0.995544"
         id="stop3405" /><stop
         style="stop-opacity:1;stop-color:#a0a5a9"
         offset="1"
         id="stop3407" /></linearGradient><clipPath
       clipPathUnits="userSpaceOnUse"
       id="clipPath3435"><path
         d="m 0,0 1204.724,0 0,841.89 L 0,841.89 0,0 z"
         id="path3437"
         inkscape:connector-curvature="0" /></clipPath><clipPath
       clipPathUnits="userSpaceOnUse"
       id="clipPath3443"><path
         d="m 863.567,851.394 44.52,0 0,-860.89794 -44.52,0 0,860.89794 z"
         id="path3445"
         inkscape:connector-curvature="0" /></clipPath><linearGradient
       x1="0"
       y1="0"
       x2="1"
       y2="0"
       gradientUnits="userSpaceOnUse"
       gradientTransform="matrix(-42.519684,0,0,-42.519684,907.08661,-8.5039368)"
       spreadMethod="pad"
       id="linearGradient3451"><stop
         style="stop-opacity:1;stop-color:#ffffff"
         offset="0"
         id="stop3453" /><stop
         style="stop-opacity:1;stop-color:#a0a5a9"
         offset="0.995544"
         id="stop3455" /><stop
         style="stop-opacity:1;stop-color:#a0a5a9"
         offset="0.995544"
         id="stop3457" /><stop
         style="stop-opacity:1;stop-color:#a0a5a9"
         offset="1"
         id="stop3459" /></linearGradient><clipPath
       clipPathUnits="userSpaceOnUse"
       id="clipPath3479"><path
         d="m 778.528,851.394 44.519,0 0,-860.89794 -44.519,0 0,860.89794 z"
         id="path3481"
         inkscape:connector-curvature="0" /></clipPath><linearGradient
       x1="0"
       y1="0"
       x2="1"
       y2="0"
       gradientUnits="userSpaceOnUse"
       gradientTransform="matrix(-42.519684,0,0,-42.519684,822.0473,-8.5039368)"
       spreadMethod="pad"
       id="linearGradient3487"><stop
         style="stop-opacity:1;stop-color:#ffffff"
         offset="0"
         id="stop3489" /><stop
         style="stop-opacity:1;stop-color:#a0a5a9"
         offset="0.995544"
         id="stop3491" /><stop
         style="stop-opacity:1;stop-color:#a0a5a9"
         offset="0.995544"
         id="stop3493" /><stop
         style="stop-opacity:1;stop-color:#a0a5a9"
         offset="1"
         id="stop3495" /></linearGradient></defs><sodipodi:namedview
     pagecolor="#ffffff"
     bordercolor="#666666"
     borderopacity="1"
     objecttolerance="10"
     gridtolerance="10"
     guidetolerance="10"
     inkscape:pageopacity="0"
     inkscape:pageshadow="2"
     inkscape:window-width="1920"
     inkscape:window-height="1028"
     id="namedview2987"
     showgrid="false"
     fit-margin-top="0.5"
     fit-margin-left="0.5"
     fit-margin-right="0.5"
     fit-margin-bottom="0.5"
     inkscape:zoom="3.588117"
     inkscape:cx="154.30185"
     inkscape:cy="55.25947"
     inkscape:window-x="-8"
     inkscape:window-y="-8"
     inkscape:window-maximized="1"
     inkscape:current-layer="g2993" /><g
     id="g2993"
     inkscape:groupmode="layer"
     inkscape:label="EBU_Annual_Report_2011-2012"
     transform="matrix(1.25,0,0,-1.25,-747.83159,1226.8464)"><g
       id="g3533"
       style="fill:#2244ff;fill-opacity:1"
       transform="matrix(1.3459382,0,0,1.3459382,-207.10117,-306.27755)"><g
         transform="translate(598.66526,886.45101)"
         id="g3021"
         style="fill:#2244ff;fill-opacity:1"><path
           inkscape:connector-curvature="0"
           id="path3023"
           style="fill:#2244ff;fill-opacity:1;fill-rule:nonzero;stroke:none"
           d="m 0,0 45.347,0 0,13.703 -30.046,0 0,14.705 30.046,0 0,13.704 -30.046,0 0,14.202 30.046,0 0,13.708 L 0,70.022 0,0 z" /></g><g
         transform="translate(-67.476439,157.02461)"
         id="g3025"
         style="fill:#2244ff;fill-opacity:1"><g
           clip-path="url(#clipPath3029)"
           id="g3027"
           style="fill:#2244ff;fill-opacity:1"><g
             transform="translate(828.4526,799.4488)"
             id="g3033"
             style="fill:#2244ff;fill-opacity:1"><path
               inkscape:connector-curvature="0"
               id="path3035"
               style="fill:#2244ff;fill-opacity:1;fill-rule:nonzero;stroke:none"
               d="m 0,0 0,-40.114 c 0,-11.103 -5.701,-16.806 -15.104,-16.806 -9.4,0 -15.099,5.903 -15.099,17.305 l 0,39.615 -15.408,0 0,-40.013 c 0,-20.606 11.505,-31.107 30.31,-31.107 18.805,0 30.71,10.4 30.71,31.606 L 15.409,0 0,0 z" /></g><g
             transform="translate(762.5101,766.0402)"
             id="g3037"
             style="fill:#2244ff;fill-opacity:1"><path
               inkscape:connector-curvature="0"
               id="path3039"
               style="fill:#2244ff;fill-opacity:1;fill-rule:nonzero;stroke:none"
               d="m 0,0 c 5.003,2.799 9.203,7.2 9.203,15.103 l 0,0.202 c 0,4.8 -1.602,8.7 -4.8,11.901 -3.465,3.466 -8.665,5.575 -15.192,6.077 -1.009,0.079 -2.043,0.126 -3.115,0.126 l -26.011,0 0,-70.023 26.811,0 c 0.787,0 1.553,0.029 2.315,0.06 14.492,0.609 23.893,6.98 23.893,19.148 l 0,0.199 C 13.104,-7.807 8.1,-3.104 0,0 m -24.912,19.903 8.707,0 c 2.139,0 3.929,-0.309 5.416,-0.851 3.032,-1.104 4.685,-3.265 4.685,-6.352 l 0,-0.201 c 0,-3.279 -1.716,-5.358 -4.685,-6.452 -1.739,-0.643 -3.905,-0.948 -6.418,-0.948 l -7.705,0 0,14.804 z M -2.2,-15.507 c 0,-4.579 -3.185,-6.98 -8.589,-7.49 -0.734,-0.07 -1.504,-0.109 -2.315,-0.109 l -11.808,0 0,15.404 11.308,0 c 1.011,0 1.947,-0.055 2.815,-0.146 5.924,-0.633 8.589,-3.36 8.589,-7.457 l 0,-0.202 z" /></g></g></g></g></g></svg>